<svg width="504" height="314" viewBox="0 0 504 314" fill="none" xmlns="http://www.w3.org/2000/svg">
<path d="M16.3353 135.576C17.5299 135.789 18.5433 136.419 19.3753 137.464C20.2073 138.509 20.6233 139.693 20.6233 141.016C20.6233 142.147 20.3246 143.171 19.7273 144.088C19.1513 144.984 18.3086 145.699 17.1993 146.232C16.0899 146.744 14.7993 147 13.3273 147H4.43125V124.76H12.9113C14.4259 124.76 15.7273 125.016 16.8153 125.528C17.9033 126.04 18.7246 126.733 19.2793 127.608C19.8339 128.461 20.1112 129.421 20.1112 130.488C20.1112 131.768 19.7699 132.835 19.0873 133.688C18.4046 134.541 17.4873 135.171 16.3353 135.576ZM8.07925 134.104H12.5913C13.7859 134.104 14.7139 133.837 15.3753 133.304C16.0579 132.749 16.3993 131.96 16.3993 130.936C16.3993 129.933 16.0579 129.155 15.3753 128.6C14.7139 128.024 13.7859 127.736 12.5913 127.736H8.07925V134.104ZM13.0073 144.024C14.2446 144.024 15.2153 143.725 15.9193 143.128C16.6233 142.531 16.9753 141.699 16.9753 140.632C16.9753 139.544 16.6019 138.68 15.8553 138.04C15.1086 137.4 14.1166 137.08 12.8793 137.08H8.07925V144.024H13.0073ZM40.5555 129.368V147H36.9075V144.92C36.3315 145.645 35.5742 146.221 34.6355 146.648C33.7182 147.053 32.7368 147.256 31.6915 147.256C30.3048 147.256 29.0568 146.968 27.9475 146.392C26.8595 145.816 25.9955 144.963 25.3555 143.832C24.7368 142.701 24.4275 141.336 24.4275 139.736V129.368H28.0435V139.192C28.0435 140.771 28.4382 141.987 29.2275 142.84C30.0168 143.672 31.0942 144.088 32.4595 144.088C33.8248 144.088 34.9022 143.672 35.6915 142.84C36.5022 141.987 36.9075 140.771 36.9075 139.192V129.368H40.5555ZM52.3448 138.2L60.4728 147H55.5448L49.0168 139.416V147H45.3688V123.32H49.0168V137.08L55.4168 129.368H60.4728L52.3448 138.2ZM61.8715 138.104C61.8715 136.333 62.2342 134.765 62.9595 133.4C63.7062 132.035 64.7088 130.979 65.9675 130.232C67.2475 129.464 68.6555 129.08 70.1915 129.08C71.5782 129.08 72.7835 129.357 73.8075 129.912C74.8528 130.445 75.6848 131.117 76.3035 131.928V129.368H79.9835V147H76.3035V144.376C75.6848 145.208 74.8422 145.901 73.7755 146.456C72.7088 147.011 71.4928 147.288 70.1275 147.288C68.6128 147.288 67.2262 146.904 65.9675 146.136C64.7088 145.347 63.7062 144.259 62.9595 142.872C62.2342 141.464 61.8715 139.875 61.8715 138.104ZM76.3035 138.168C76.3035 136.952 76.0475 135.896 75.5355 135C75.0448 134.104 74.3942 133.421 73.5835 132.952C72.7728 132.483 71.8982 132.248 70.9595 132.248C70.0208 132.248 69.1462 132.483 68.3355 132.952C67.5248 133.4 66.8635 134.072 66.3515 134.968C65.8608 135.843 65.6155 136.888 65.6155 138.104C65.6155 139.32 65.8608 140.387 66.3515 141.304C66.8635 142.221 67.5248 142.925 68.3355 143.416C69.1675 143.885 70.0422 144.12 70.9595 144.12C71.8982 144.12 72.7728 143.885 73.5835 143.416C74.3942 142.947 75.0448 142.264 75.5355 141.368C76.0475 140.451 76.3035 139.384 76.3035 138.168ZM99.4875 147.288C98.1008 147.288 96.8528 147.043 95.7435 146.552C94.6555 146.04 93.7915 145.357 93.1515 144.504C92.5115 143.629 92.1702 142.659 92.1275 141.592H95.9035C95.9675 142.339 96.3195 142.968 96.9595 143.48C97.6208 143.971 98.4422 144.216 99.4235 144.216C100.448 144.216 101.237 144.024 101.792 143.64C102.368 143.235 102.656 142.723 102.656 142.104C102.656 141.443 102.336 140.952 101.696 140.632C101.077 140.312 100.085 139.96 98.7195 139.576C97.3968 139.213 96.3195 138.861 95.4875 138.52C94.6555 138.179 93.9302 137.656 93.3115 136.952C92.7142 136.248 92.4155 135.32 92.4155 134.168C92.4155 133.229 92.6928 132.376 93.2475 131.608C93.8022 130.819 94.5915 130.2 95.6155 129.752C96.6608 129.304 97.8555 129.08 99.1995 129.08C101.205 129.08 102.816 129.592 104.032 130.616C105.269 131.619 105.93 132.995 106.016 134.744H102.368C102.304 133.955 101.984 133.325 101.408 132.856C100.832 132.387 100.053 132.152 99.0715 132.152C98.1115 132.152 97.3755 132.333 96.8635 132.696C96.3515 133.059 96.0955 133.539 96.0955 134.136C96.0955 134.605 96.2662 135 96.6075 135.32C96.9488 135.64 97.3648 135.896 97.8555 136.088C98.3462 136.259 99.0715 136.483 100.032 136.76C101.312 137.101 102.357 137.453 103.168 137.816C104 138.157 104.714 138.669 105.312 139.352C105.909 140.035 106.218 140.941 106.24 142.072C106.24 143.075 105.962 143.971 105.408 144.76C104.853 145.549 104.064 146.168 103.04 146.616C102.037 147.064 100.853 147.288 99.4875 147.288ZM112.037 127.032C111.376 127.032 110.821 126.808 110.373 126.36C109.925 125.912 109.701 125.357 109.701 124.696C109.701 124.035 109.925 123.48 110.373 123.032C110.821 122.584 111.376 122.36 112.037 122.36C112.677 122.36 113.221 122.584 113.669 123.032C114.117 123.48 114.341 124.035 114.341 124.696C114.341 125.357 114.117 125.912 113.669 126.36C113.221 126.808 112.677 127.032 112.037 127.032ZM113.829 129.368V147H110.181V129.368H113.829ZM122.875 132.344V142.104C122.875 142.765 123.024 143.245 123.323 143.544C123.643 143.821 124.176 143.96 124.923 143.96H127.163V147H124.283C122.64 147 121.381 146.616 120.507 145.848C119.632 145.08 119.195 143.832 119.195 142.104V132.344H117.115V129.368H119.195V124.984H122.875V129.368H127.163V132.344H122.875ZM146.493 129.368V147H142.845V144.92C142.269 145.645 141.512 146.221 140.573 146.648C139.656 147.053 138.674 147.256 137.629 147.256C136.242 147.256 134.994 146.968 133.885 146.392C132.797 145.816 131.933 144.963 131.293 143.832C130.674 142.701 130.365 141.336 130.365 139.736V129.368H133.981V139.192C133.981 140.771 134.376 141.987 135.165 142.84C135.954 143.672 137.032 144.088 138.397 144.088C139.762 144.088 140.84 143.672 141.629 142.84C142.44 141.987 142.845 140.771 142.845 139.192V129.368H146.493ZM157.706 147.288C156.32 147.288 155.072 147.043 153.962 146.552C152.874 146.04 152.01 145.357 151.37 144.504C150.73 143.629 150.389 142.659 150.346 141.592H154.122C154.186 142.339 154.538 142.968 155.178 143.48C155.84 143.971 156.661 144.216 157.642 144.216C158.666 144.216 159.456 144.024 160.01 143.64C160.586 143.235 160.874 142.723 160.874 142.104C160.874 141.443 160.554 140.952 159.914 140.632C159.296 140.312 158.304 139.96 156.938 139.576C155.616 139.213 154.538 138.861 153.706 138.52C152.874 138.179 152.149 137.656 151.53 136.952C150.933 136.248 150.634 135.32 150.634 134.168C150.634 133.229 150.912 132.376 151.466 131.608C152.021 130.819 152.81 130.2 153.834 129.752C154.88 129.304 156.074 129.08 157.418 129.08C159.424 129.08 161.034 129.592 162.25 130.616C163.488 131.619 164.149 132.995 164.234 134.744H160.586C160.522 133.955 160.202 133.325 159.626 132.856C159.05 132.387 158.272 132.152 157.29 132.152C156.33 132.152 155.594 132.333 155.082 132.696C154.57 133.059 154.314 133.539 154.314 134.136C154.314 134.605 154.485 135 154.826 135.32C155.168 135.64 155.584 135.896 156.074 136.088C156.565 136.259 157.29 136.483 158.25 136.76C159.53 137.101 160.576 137.453 161.386 137.816C162.218 138.157 162.933 138.669 163.53 139.352C164.128 140.035 164.437 140.941 164.458 142.072C164.458 143.075 164.181 143.971 163.626 144.76C163.072 145.549 162.282 146.168 161.258 146.616C160.256 147.064 159.072 147.288 157.706 147.288ZM200.393 129.368L194.921 147H191.081L187.529 133.976L183.977 147H180.137L174.633 129.368H178.345L182.025 143.544L185.769 129.368H189.577L193.161 143.48L196.809 129.368H200.393ZM219.279 137.752C219.279 138.413 219.236 139.011 219.151 139.544H205.679C205.785 140.952 206.308 142.083 207.247 142.936C208.185 143.789 209.337 144.216 210.703 144.216C212.665 144.216 214.052 143.395 214.863 141.752H218.799C218.265 143.373 217.295 144.707 215.887 145.752C214.5 146.776 212.772 147.288 210.703 147.288C209.017 147.288 207.503 146.915 206.159 146.168C204.836 145.4 203.791 144.333 203.023 142.968C202.276 141.581 201.903 139.981 201.903 138.168C201.903 136.355 202.265 134.765 202.991 133.4C203.737 132.013 204.772 130.947 206.095 130.2C207.439 129.453 208.975 129.08 210.703 129.08C212.367 129.08 213.849 129.443 215.151 130.168C216.452 130.893 217.465 131.917 218.191 133.24C218.916 134.541 219.279 136.045 219.279 137.752ZM215.471 136.6C215.449 135.256 214.969 134.179 214.031 133.368C213.092 132.557 211.929 132.152 210.543 132.152C209.284 132.152 208.207 132.557 207.311 133.368C206.415 134.157 205.881 135.235 205.711 136.6H215.471ZM226.517 131.992C227.135 131.139 227.978 130.445 229.045 129.912C230.133 129.357 231.338 129.08 232.661 129.08C234.218 129.08 235.626 129.453 236.885 130.2C238.143 130.947 239.135 132.013 239.861 133.4C240.586 134.765 240.949 136.333 240.949 138.104C240.949 139.875 240.586 141.464 239.861 142.872C239.135 144.259 238.133 145.347 236.853 146.136C235.594 146.904 234.197 147.288 232.661 147.288C231.295 147.288 230.079 147.021 229.013 146.488C227.967 145.955 227.135 145.272 226.517 144.44V147H222.869V123.32H226.517V131.992ZM237.237 138.104C237.237 136.888 236.981 135.843 236.469 134.968C235.978 134.072 235.317 133.4 234.485 132.952C233.674 132.483 232.799 132.248 231.861 132.248C230.943 132.248 230.069 132.483 229.237 132.952C228.426 133.421 227.765 134.104 227.253 135C226.762 135.896 226.517 136.952 226.517 138.168C226.517 139.384 226.762 140.451 227.253 141.368C227.765 142.264 228.426 142.947 229.237 143.416C230.069 143.885 230.943 144.12 231.861 144.12C232.799 144.12 233.674 143.885 234.485 143.416C235.317 142.925 235.978 142.221 236.469 141.304C236.981 140.387 237.237 139.32 237.237 138.104ZM259.845 138.2L267.973 147H263.045L256.517 139.416V147H252.869V123.32H256.517V137.08L262.917 129.368H267.973L259.845 138.2ZM269.372 138.104C269.372 136.333 269.734 134.765 270.46 133.4C271.206 132.035 272.209 130.979 273.468 130.232C274.748 129.464 276.156 129.08 277.692 129.08C279.078 129.08 280.284 129.357 281.308 129.912C282.353 130.445 283.185 131.117 283.804 131.928V129.368H287.484V147H283.804V144.376C283.185 145.208 282.342 145.901 281.276 146.456C280.209 147.011 278.993 147.288 277.628 147.288C276.113 147.288 274.726 146.904 273.468 146.136C272.209 145.347 271.206 144.259 270.46 142.872C269.734 141.464 269.372 139.875 269.372 138.104ZM283.804 138.168C283.804 136.952 283.548 135.896 283.036 135C282.545 134.104 281.894 133.421 281.084 132.952C280.273 132.483 279.398 132.248 278.46 132.248C277.521 132.248 276.646 132.483 275.836 132.952C275.025 133.4 274.364 134.072 273.852 134.968C273.361 135.843 273.116 136.888 273.116 138.104C273.116 139.32 273.361 140.387 273.852 141.304C274.364 142.221 275.025 142.925 275.836 143.416C276.668 143.885 277.542 144.12 278.46 144.12C279.398 144.12 280.273 143.885 281.084 143.416C281.894 142.947 282.545 142.264 283.036 141.368C283.548 140.451 283.804 139.384 283.804 138.168ZM313.619 129.08C315.006 129.08 316.243 129.368 317.331 129.944C318.44 130.52 319.304 131.373 319.923 132.504C320.563 133.635 320.883 135 320.883 136.6V147H317.267V137.144C317.267 135.565 316.872 134.36 316.083 133.528C315.294 132.675 314.216 132.248 312.851 132.248C311.486 132.248 310.398 132.675 309.587 133.528C308.798 134.36 308.403 135.565 308.403 137.144V147H304.787V137.144C304.787 135.565 304.392 134.36 303.603 133.528C302.814 132.675 301.736 132.248 300.371 132.248C299.006 132.248 297.918 132.675 297.107 133.528C296.318 134.36 295.923 135.565 295.923 137.144V147H292.275V129.368H295.923V131.384C296.52 130.659 297.278 130.093 298.195 129.688C299.112 129.283 300.094 129.08 301.139 129.08C302.547 129.08 303.806 129.379 304.915 129.976C306.024 130.573 306.878 131.437 307.475 132.568C308.008 131.501 308.84 130.659 309.971 130.04C311.102 129.4 312.318 129.08 313.619 129.08ZM327.381 127.032C326.72 127.032 326.165 126.808 325.717 126.36C325.269 125.912 325.045 125.357 325.045 124.696C325.045 124.035 325.269 123.48 325.717 123.032C326.165 122.584 326.72 122.36 327.381 122.36C328.021 122.36 328.565 122.584 329.013 123.032C329.461 123.48 329.685 124.035 329.685 124.696C329.685 125.357 329.461 125.912 329.013 126.36C328.565 126.808 328.021 127.032 327.381 127.032ZM329.173 129.368V147H325.525V129.368H329.173ZM349.251 138.2L357.379 147H352.451L345.923 139.416V147H342.275V123.32H345.923V137.08L352.323 129.368H357.379L349.251 138.2ZM376.154 137.752C376.154 138.413 376.111 139.011 376.026 139.544H362.554C362.66 140.952 363.183 142.083 364.122 142.936C365.06 143.789 366.212 144.216 367.578 144.216C369.54 144.216 370.927 143.395 371.738 141.752H375.674C375.14 143.373 374.17 144.707 372.762 145.752C371.375 146.776 369.647 147.288 367.578 147.288C365.892 147.288 364.378 146.915 363.034 146.168C361.711 145.4 360.666 144.333 359.898 142.968C359.151 141.581 358.778 139.981 358.778 138.168C358.778 136.355 359.14 134.765 359.866 133.4C360.612 132.013 361.647 130.947 362.97 130.2C364.314 129.453 365.85 129.08 367.578 129.08C369.242 129.08 370.724 129.443 372.026 130.168C373.327 130.893 374.34 131.917 375.066 133.24C375.791 134.541 376.154 136.045 376.154 137.752ZM372.346 136.6C372.324 135.256 371.844 134.179 370.906 133.368C369.967 132.557 368.804 132.152 367.418 132.152C366.159 132.152 365.082 132.557 364.186 133.368C363.29 134.157 362.756 135.235 362.586 136.6H372.346ZM401.088 129.08C402.474 129.08 403.712 129.368 404.8 129.944C405.909 130.52 406.773 131.373 407.392 132.504C408.032 133.635 408.352 135 408.352 136.6V147H404.736V137.144C404.736 135.565 404.341 134.36 403.552 133.528C402.762 132.675 401.685 132.248 400.32 132.248C398.954 132.248 397.866 132.675 397.056 133.528C396.266 134.36 395.872 135.565 395.872 137.144V147H392.256V137.144C392.256 135.565 391.861 134.36 391.072 133.528C390.282 132.675 389.205 132.248 387.84 132.248C386.474 132.248 385.386 132.675 384.576 133.528C383.786 134.36 383.392 135.565 383.392 137.144V147H379.744V129.368H383.392V131.384C383.989 130.659 384.746 130.093 385.664 129.688C386.581 129.283 387.562 129.08 388.608 129.08C390.016 129.08 391.274 129.379 392.384 129.976C393.493 130.573 394.346 131.437 394.944 132.568C395.477 131.501 396.309 130.659 397.44 130.04C398.57 129.4 399.786 129.08 401.088 129.08ZM428.962 129.368V147H425.314V144.92C424.738 145.645 423.98 146.221 423.042 146.648C422.124 147.053 421.143 147.256 420.098 147.256C418.711 147.256 417.463 146.968 416.354 146.392C415.266 145.816 414.402 144.963 413.762 143.832C413.143 142.701 412.834 141.336 412.834 139.736V129.368H416.45V139.192C416.45 140.771 416.844 141.987 417.634 142.84C418.423 143.672 419.5 144.088 420.866 144.088C422.231 144.088 423.308 143.672 424.098 142.84C424.908 141.987 425.314 140.771 425.314 139.192V129.368H428.962ZM432.559 138.104C432.559 136.333 432.922 134.765 433.647 133.4C434.394 132.035 435.396 130.979 436.655 130.232C437.935 129.464 439.354 129.08 440.911 129.08C442.063 129.08 443.194 129.336 444.303 129.848C445.434 130.339 446.33 131 446.991 131.832V123.32H450.671V147H446.991V144.344C446.394 145.197 445.562 145.901 444.495 146.456C443.45 147.011 442.244 147.288 440.879 147.288C439.343 147.288 437.935 146.904 436.655 146.136C435.396 145.347 434.394 144.259 433.647 142.872C432.922 141.464 432.559 139.875 432.559 138.104ZM446.991 138.168C446.991 136.952 446.735 135.896 446.223 135C445.732 134.104 445.082 133.421 444.271 132.952C443.46 132.483 442.586 132.248 441.647 132.248C440.708 132.248 439.834 132.483 439.023 132.952C438.212 133.4 437.551 134.072 437.039 134.968C436.548 135.843 436.303 136.888 436.303 138.104C436.303 139.32 436.548 140.387 437.039 141.304C437.551 142.221 438.212 142.925 439.023 143.416C439.855 143.885 440.73 144.12 441.647 144.12C442.586 144.12 443.46 143.885 444.271 143.416C445.082 142.947 445.732 142.264 446.223 141.368C446.735 140.451 446.991 139.384 446.991 138.168ZM457.319 127.032C456.657 127.032 456.103 126.808 455.655 126.36C455.207 125.912 454.983 125.357 454.983 124.696C454.983 124.035 455.207 123.48 455.655 123.032C456.103 122.584 456.657 122.36 457.319 122.36C457.959 122.36 458.503 122.584 458.951 123.032C459.399 123.48 459.623 124.035 459.623 124.696C459.623 125.357 459.399 125.912 458.951 126.36C458.503 126.808 457.959 127.032 457.319 127.032ZM459.111 129.368V147H455.463V129.368H459.111ZM462.684 138.104C462.684 136.333 463.047 134.765 463.772 133.4C464.519 132.035 465.521 130.979 466.78 130.232C468.06 129.464 469.468 129.08 471.004 129.08C472.391 129.08 473.596 129.357 474.62 129.912C475.665 130.445 476.497 131.117 477.116 131.928V129.368H480.796V147H477.116V144.376C476.497 145.208 475.655 145.901 474.588 146.456C473.521 147.011 472.305 147.288 470.94 147.288C469.425 147.288 468.039 146.904 466.78 146.136C465.521 145.347 464.519 144.259 463.772 142.872C463.047 141.464 462.684 139.875 462.684 138.104ZM477.116 138.168C477.116 136.952 476.86 135.896 476.348 135C475.857 134.104 475.207 133.421 474.396 132.952C473.585 132.483 472.711 132.248 471.772 132.248C470.833 132.248 469.959 132.483 469.148 132.952C468.337 133.4 467.676 134.072 467.164 134.968C466.673 135.843 466.428 136.888 466.428 138.104C466.428 139.32 466.673 140.387 467.164 141.304C467.676 142.221 468.337 142.925 469.148 143.416C469.98 143.885 470.855 144.12 471.772 144.12C472.711 144.12 473.585 143.885 474.396 143.416C475.207 142.947 475.857 142.264 476.348 141.368C476.86 140.451 477.116 139.384 477.116 138.168ZM494.484 129.08C495.87 129.08 497.108 129.368 498.196 129.944C499.305 130.52 500.169 131.373 500.788 132.504C501.406 133.635 501.716 135 501.716 136.6V147H498.1V137.144C498.1 135.565 497.705 134.36 496.916 133.528C496.126 132.675 495.049 132.248 493.684 132.248C492.318 132.248 491.23 132.675 490.42 133.528C489.63 134.36 489.236 135.565 489.236 137.144V147H485.588V129.368H489.236V131.384C489.833 130.659 490.59 130.093 491.508 129.688C492.446 129.283 493.438 129.08 494.484 129.08Z" fill="#191D23"/>
<path d="M22.5053 230.448C19.2199 230.448 16.2759 229.915 13.6733 228.848C11.0706 227.781 8.97992 226.203 7.40125 224.112C5.86525 222.021 5.05458 219.504 4.96925 216.56H16.6173C16.7879 218.224 17.3639 219.504 18.3453 220.4C19.3266 221.253 20.6066 221.68 22.1853 221.68C23.8066 221.68 25.0866 221.317 26.0253 220.592C26.9639 219.824 27.4333 218.779 27.4333 217.456C27.4333 216.347 27.0493 215.429 26.2813 214.704C25.5559 213.979 24.6386 213.381 23.5293 212.912C22.4626 212.443 20.9266 211.909 18.9213 211.312C16.0199 210.416 13.6519 209.52 11.8173 208.624C9.98258 207.728 8.40392 206.405 7.08125 204.656C5.75858 202.907 5.09725 200.624 5.09725 197.808C5.09725 193.627 6.61192 190.363 9.64125 188.016C12.6706 185.627 16.6173 184.432 21.4813 184.432C26.4306 184.432 30.4199 185.627 33.4493 188.016C36.4786 190.363 38.0999 193.648 38.3133 197.872H26.4733C26.3879 196.421 25.8546 195.291 24.8733 194.48C23.8919 193.627 22.6333 193.2 21.0972 193.2C19.7746 193.2 18.7079 193.563 17.8973 194.288C17.0866 194.971 16.6813 195.973 16.6813 197.296C16.6813 198.747 17.3639 199.877 18.7292 200.688C20.0946 201.499 22.2279 202.373 25.1293 203.312C28.0306 204.293 30.3773 205.232 32.1693 206.128C34.0039 207.024 35.5826 208.325 36.9053 210.032C38.2279 211.739 38.8893 213.936 38.8893 216.624C38.8893 219.184 38.2279 221.509 36.9053 223.6C35.6253 225.691 33.7479 227.355 31.2733 228.592C28.7986 229.829 25.8759 230.448 22.5053 230.448ZM43.4483 212.144C43.4483 208.432 44.1949 205.189 45.6883 202.416C47.2243 199.643 49.3363 197.509 52.0243 196.016C54.7549 194.523 57.8696 193.776 61.3683 193.776C65.8483 193.776 69.5816 194.949 72.5683 197.296C75.5976 199.643 77.5816 202.949 78.5203 207.216H66.8723C65.8909 204.485 63.9923 203.12 61.1763 203.12C59.1709 203.12 57.5709 203.909 56.3763 205.488C55.1816 207.024 54.5843 209.243 54.5843 212.144C54.5843 215.045 55.1816 217.285 56.3763 218.864C57.5709 220.4 59.1709 221.168 61.1763 221.168C63.9923 221.168 65.8909 219.803 66.8723 217.072H78.5203C77.5816 221.253 75.5976 224.539 72.5683 226.928C69.5389 229.317 65.8056 230.512 61.3683 230.512C57.8696 230.512 54.7549 229.765 52.0243 228.272C49.3363 226.779 47.2243 224.645 45.6883 221.872C44.1949 219.099 43.4483 215.856 43.4483 212.144ZM82.1983 212.08C82.1983 208.411 82.8809 205.189 84.2463 202.416C85.6543 199.643 87.5529 197.509 89.9423 196.016C92.3316 194.523 94.9983 193.776 97.9423 193.776C100.46 193.776 102.657 194.288 104.534 195.312C106.454 196.336 107.926 197.68 108.95 199.344V194.288H119.894V230H108.95V224.944C107.884 226.608 106.39 227.952 104.47 228.976C102.593 230 100.396 230.512 97.8783 230.512C94.9769 230.512 92.3316 229.765 89.9423 228.272C87.5529 226.736 85.6543 224.581 84.2463 221.808C82.8809 218.992 82.1983 215.749 82.1983 212.08ZM108.95 212.144C108.95 209.413 108.182 207.259 106.646 205.68C105.153 204.101 103.318 203.312 101.142 203.312C98.9663 203.312 97.1103 204.101 95.5743 205.68C94.0809 207.216 93.3343 209.349 93.3343 212.08C93.3343 214.811 94.0809 216.987 95.5743 218.608C97.1103 220.187 98.9663 220.976 101.142 220.976C103.318 220.976 105.153 220.187 106.646 218.608C108.182 217.029 108.95 214.875 108.95 212.144ZM149.572 193.904C153.753 193.904 157.081 195.269 159.556 198C162.073 200.688 163.332 204.4 163.332 209.136V230H152.452V210.608C152.452 208.219 151.833 206.363 150.596 205.04C149.358 203.717 147.694 203.056 145.604 203.056C143.513 203.056 141.849 203.717 140.612 205.04C139.374 206.363 138.756 208.219 138.756 210.608V230H127.812V194.288H138.756V199.024C139.865 197.445 141.358 196.208 143.236 195.312C145.113 194.373 147.225 193.904 149.572 193.904ZM216.499 237.68L210.739 229.936C209.033 230.277 207.369 230.448 205.747 230.448C201.523 230.448 197.641 229.467 194.099 227.504C190.601 225.541 187.806 222.811 185.715 219.312C183.667 215.771 182.643 211.803 182.643 207.408C182.643 203.013 183.667 199.067 185.715 195.568C187.806 192.069 190.601 189.339 194.099 187.376C197.641 185.413 201.523 184.432 205.747 184.432C209.971 184.432 213.833 185.413 217.331 187.376C220.873 189.339 223.646 192.069 225.651 195.568C227.699 199.067 228.723 203.013 228.723 207.408C228.723 211.248 227.934 214.768 226.355 217.968C224.819 221.125 222.665 223.749 219.891 225.84L229.747 237.68H216.499ZM193.843 207.408C193.843 211.376 194.91 214.555 197.043 216.944C199.219 219.291 202.121 220.464 205.747 220.464C209.331 220.464 212.19 219.269 214.323 216.88C216.499 214.491 217.587 211.333 217.587 207.408C217.587 203.44 216.499 200.283 214.323 197.936C212.19 195.547 209.331 194.352 205.747 194.352C202.121 194.352 199.219 195.525 197.043 197.872C194.91 200.219 193.843 203.397 193.843 207.408ZM257.849 230L248.505 213.04H245.881V230H234.937V185.072H253.305C256.846 185.072 259.854 185.691 262.329 186.928C264.846 188.165 266.723 189.872 267.961 192.048C269.198 194.181 269.817 196.571 269.817 199.216C269.817 202.203 268.963 204.869 267.257 207.216C265.593 209.563 263.118 211.227 259.833 212.208L270.201 230H257.849ZM245.881 205.296H252.665C254.67 205.296 256.163 204.805 257.145 203.824C258.169 202.843 258.681 201.456 258.681 199.664C258.681 197.957 258.169 196.613 257.145 195.632C256.163 194.651 254.67 194.16 252.665 194.16H245.881V205.296Z" fill="#144272"/>
<rect x="294" y="168" width="210" height="80" rx="20" fill="#144272"/>
<path d="M347.112 211.294L323.129 232.277C320.303 234.753 315.875 232.741 315.875 228.982V187.017C315.874 186.176 316.116 185.353 316.571 184.646C317.026 183.939 317.676 183.378 318.442 183.03C319.208 182.682 320.057 182.563 320.89 182.686C321.722 182.809 322.501 183.169 323.133 183.723L347.108 204.706C347.578 205.116 347.955 205.623 348.213 206.191C348.471 206.759 348.604 207.376 348.604 208C348.604 208.624 348.471 209.241 348.213 209.809C347.955 210.377 347.578 210.884 347.108 211.294H347.112Z" fill="white"/>
<path d="M417.112 211.294L393.129 232.277C390.303 234.753 385.875 232.741 385.875 228.982V187.017C385.874 186.176 386.116 185.353 386.571 184.646C387.026 183.939 387.676 183.378 388.442 183.03C389.208 182.682 390.057 182.563 390.89 182.686C391.722 182.809 392.501 183.169 393.133 183.723L417.108 204.706C417.578 205.116 417.955 205.623 418.213 206.191C418.471 206.759 418.604 207.376 418.604 208C418.604 208.624 418.471 209.241 418.213 209.809C417.955 210.377 417.578 210.884 417.108 211.294H417.112Z" fill="white"/>
<path d="M487.112 211.294L463.129 232.277C460.303 234.753 455.875 232.741 455.875 228.982V187.017C455.874 186.176 456.116 185.353 456.571 184.646C457.026 183.939 457.676 183.378 458.442 183.03C459.208 182.682 460.057 182.563 460.89 182.686C461.722 182.809 462.501 183.169 463.133 183.723L487.108 204.706C487.578 205.116 487.955 205.623 488.213 206.191C488.471 206.759 488.604 207.376 488.604 208C488.604 208.624 488.471 209.241 488.213 209.809C487.955 210.377 487.578 210.884 487.108 211.294H487.112Z" fill="white"/>
<path d="M20.4774 273.368V291H16.8294V288.92C16.2534 289.645 15.496 290.221 14.5574 290.648C13.64 291.053 12.6587 291.256 11.6134 291.256C10.2267 291.256 8.97871 290.968 7.86938 290.392C6.78138 289.816 5.91738 288.963 5.27738 287.832C4.65871 286.701 4.34938 285.336 4.34938 283.736V273.368H7.96538V283.192C7.96538 284.771 8.36004 285.987 9.14938 286.84C9.93871 287.672 11.016 288.088 12.3814 288.088C13.7467 288.088 14.824 287.672 15.6134 286.84C16.424 285.987 16.8294 284.771 16.8294 283.192V273.368H20.4774ZM34.1866 273.08C35.5733 273.08 36.8106 273.368 37.8986 273.944C39.008 274.52 39.872 275.373 40.4906 276.504C41.1093 277.635 41.4186 279 41.4186 280.6V291H37.8026V281.144C37.8026 279.565 37.408 278.36 36.6186 277.528C35.8293 276.675 34.752 276.248 33.3866 276.248C32.0213 276.248 30.9333 276.675 30.1226 277.528C29.3333 278.36 28.9386 279.565 28.9386 281.144V291H25.2906V273.368H28.9386V275.384C29.536 274.659 30.2933 274.093 31.2106 273.688C32.1493 273.283 33.1413 273.08 34.1866 273.08ZM50.3279 276.344V286.104C50.3279 286.765 50.4772 287.245 50.7759 287.544C51.0959 287.821 51.6292 287.96 52.3759 287.96H54.6159V291H51.7359C50.0932 291 48.8345 290.616 47.9599 289.848C47.0852 289.08 46.6479 287.832 46.6479 286.104V276.344H44.5679V273.368H46.6479V268.984H50.3279V273.368H54.6159V276.344H50.3279ZM73.9461 273.368V291H70.2981V288.92C69.7221 289.645 68.9648 290.221 68.0261 290.648C67.1088 291.053 66.1275 291.256 65.0821 291.256C63.6955 291.256 62.4475 290.968 61.3381 290.392C60.2501 289.816 59.3861 288.963 58.7461 287.832C58.1275 286.701 57.8181 285.336 57.8181 283.736V273.368H61.4341V283.192C61.4341 284.771 61.8288 285.987 62.6181 286.84C63.4075 287.672 64.4848 288.088 65.8501 288.088C67.2155 288.088 68.2928 287.672 69.0821 286.84C69.8928 285.987 70.2981 284.771 70.2981 283.192V273.368H73.9461ZM85.7354 282.2L93.8634 291H88.9354L82.4074 283.416V291H78.7594V267.32H82.4074V281.08L88.8074 273.368H93.8634L85.7354 282.2ZM126.135 273.08C127.521 273.08 128.759 273.368 129.847 273.944C130.956 274.52 131.82 275.373 132.439 276.504C133.079 277.635 133.399 279 133.399 280.6V291H129.783V281.144C129.783 279.565 129.388 278.36 128.599 277.528C127.809 276.675 126.732 276.248 125.367 276.248C124.001 276.248 122.913 276.675 122.103 277.528C121.313 278.36 120.919 279.565 120.919 281.144V291H117.303V281.144C117.303 279.565 116.908 278.36 116.119 277.528C115.329 276.675 114.252 276.248 112.887 276.248C111.521 276.248 110.433 276.675 109.623 277.528C108.833 278.36 108.439 279.565 108.439 281.144V291H104.791V273.368H108.439V275.384C109.036 274.659 109.793 274.093 110.711 273.688C111.628 273.283 112.609 273.08 113.655 273.08C115.063 273.08 116.321 273.379 117.431 273.976C118.54 274.573 119.393 275.437 119.991 276.568C120.524 275.501 121.356 274.659 122.487 274.04C123.617 273.4 124.833 273.08 126.135 273.08ZM154.201 281.752C154.201 282.413 154.158 283.011 154.073 283.544H140.601C140.707 284.952 141.23 286.083 142.169 286.936C143.107 287.789 144.259 288.216 145.625 288.216C147.587 288.216 148.974 287.395 149.785 285.752H153.721C153.187 287.373 152.217 288.707 150.809 289.752C149.422 290.776 147.694 291.288 145.625 291.288C143.939 291.288 142.425 290.915 141.081 290.168C139.758 289.4 138.713 288.333 137.945 286.968C137.198 285.581 136.825 283.981 136.825 282.168C136.825 280.355 137.187 278.765 137.913 277.4C138.659 276.013 139.694 274.947 141.017 274.2C142.361 273.453 143.897 273.08 145.625 273.08C147.289 273.08 148.771 273.443 150.073 274.168C151.374 274.893 152.387 275.917 153.113 277.24C153.838 278.541 154.201 280.045 154.201 281.752ZM150.393 280.6C150.371 279.256 149.891 278.179 148.953 277.368C148.014 276.557 146.851 276.152 145.465 276.152C144.206 276.152 143.129 276.557 142.233 277.368C141.337 278.157 140.803 279.235 140.633 280.6H150.393ZM161.439 267.32V291H157.791V267.32H161.439ZM165.012 282.104C165.012 280.333 165.375 278.765 166.1 277.4C166.847 276.035 167.849 274.979 169.108 274.232C170.388 273.464 171.796 273.08 173.332 273.08C174.719 273.08 175.924 273.357 176.948 273.912C177.993 274.445 178.825 275.117 179.444 275.928V273.368H183.124V291H179.444V288.376C178.825 289.208 177.983 289.901 176.916 290.456C175.849 291.011 174.633 291.288 173.268 291.288C171.753 291.288 170.367 290.904 169.108 290.136C167.849 289.347 166.847 288.259 166.1 286.872C165.375 285.464 165.012 283.875 165.012 282.104ZM179.444 282.168C179.444 280.952 179.188 279.896 178.676 279C178.185 278.104 177.535 277.421 176.724 276.952C175.913 276.483 175.039 276.248 174.1 276.248C173.161 276.248 172.287 276.483 171.476 276.952C170.665 277.4 170.004 278.072 169.492 278.968C169.001 279.843 168.756 280.888 168.756 282.104C168.756 283.32 169.001 284.387 169.492 285.304C170.004 286.221 170.665 286.925 171.476 287.416C172.308 287.885 173.183 288.12 174.1 288.12C175.039 288.12 175.913 287.885 176.724 287.416C177.535 286.947 178.185 286.264 178.676 285.368C179.188 284.451 179.444 283.384 179.444 282.168ZM194.892 282.2L203.02 291H198.092L191.564 283.416V291H187.916V267.32H191.564V281.08L197.964 273.368H203.02L194.892 282.2ZM221.602 273.368V291H217.954V288.92C217.378 289.645 216.621 290.221 215.682 290.648C214.765 291.053 213.784 291.256 212.738 291.256C211.352 291.256 210.104 290.968 208.994 290.392C207.906 289.816 207.042 288.963 206.402 287.832C205.784 286.701 205.474 285.336 205.474 283.736V273.368H209.09V283.192C209.09 284.771 209.485 285.987 210.274 286.84C211.064 287.672 212.141 288.088 213.506 288.088C214.872 288.088 215.949 287.672 216.738 286.84C217.549 285.987 217.954 284.771 217.954 283.192V273.368H221.602ZM233.392 282.2L241.52 291H236.592L230.064 283.416V291H226.416V267.32H230.064V281.08L236.464 273.368H241.52L233.392 282.2ZM242.918 282.104C242.918 280.333 243.281 278.765 244.006 277.4C244.753 276.035 245.756 274.979 247.014 274.232C248.294 273.464 249.702 273.08 251.238 273.08C252.625 273.08 253.83 273.357 254.854 273.912C255.9 274.445 256.732 275.117 257.35 275.928V273.368H261.03V291H257.35V288.376C256.732 289.208 255.889 289.901 254.822 290.456C253.756 291.011 252.54 291.288 251.174 291.288C249.66 291.288 248.273 290.904 247.014 290.136C245.756 289.347 244.753 288.259 244.006 286.872C243.281 285.464 242.918 283.875 242.918 282.104ZM257.35 282.168C257.35 280.952 257.094 279.896 256.582 279C256.092 278.104 255.441 277.421 254.63 276.952C253.82 276.483 252.945 276.248 252.006 276.248C251.068 276.248 250.193 276.483 249.382 276.952C248.572 277.4 247.91 278.072 247.398 278.968C246.908 279.843 246.662 280.888 246.662 282.104C246.662 283.32 246.908 284.387 247.398 285.304C247.91 286.221 248.572 286.925 249.382 287.416C250.214 287.885 251.089 288.12 252.006 288.12C252.945 288.12 253.82 287.885 254.63 287.416C255.441 286.947 256.092 286.264 256.582 285.368C257.094 284.451 257.35 283.384 257.35 282.168ZM274.718 273.08C276.105 273.08 277.342 273.368 278.43 273.944C279.539 274.52 280.403 275.373 281.022 276.504C281.641 277.635 281.95 279 281.95 280.6V291H278.334V281.144C278.334 279.565 277.939 278.36 277.15 277.528C276.361 276.675 275.283 276.248 273.918 276.248C272.553 276.248 271.465 276.675 270.654 277.528C269.865 278.36 269.47 279.565 269.47 281.144V291H265.822V273.368H269.47V275.384C270.067 274.659 270.825 274.093 271.742 273.688C272.681 273.283 273.673 273.08 274.718 273.08ZM302.244 291.224C300.75 291.224 299.406 290.968 298.212 290.456C297.017 289.923 296.078 289.176 295.396 288.216C294.713 287.256 294.372 286.136 294.372 284.856H298.276C298.361 285.816 298.734 286.605 299.396 287.224C300.078 287.843 301.028 288.152 302.244 288.152C303.502 288.152 304.484 287.853 305.188 287.256C305.892 286.637 306.244 285.848 306.244 284.888C306.244 284.141 306.02 283.533 305.572 283.064C305.145 282.595 304.601 282.232 303.94 281.976C303.3 281.72 302.404 281.443 301.252 281.144C299.801 280.76 298.617 280.376 297.7 279.992C296.804 279.587 296.036 278.968 295.396 278.136C294.756 277.304 294.436 276.195 294.436 274.808C294.436 273.528 294.756 272.408 295.396 271.448C296.036 270.488 296.932 269.752 298.084 269.24C299.236 268.728 300.569 268.472 302.084 268.472C304.238 268.472 305.998 269.016 307.364 270.104C308.75 271.171 309.518 272.643 309.668 274.52H305.636C305.572 273.709 305.188 273.016 304.484 272.44C303.78 271.864 302.852 271.576 301.7 271.576C300.654 271.576 299.801 271.843 299.14 272.376C298.478 272.909 298.148 273.677 298.148 274.68C298.148 275.363 298.35 275.928 298.756 276.376C299.182 276.803 299.716 277.144 300.356 277.4C300.996 277.656 301.87 277.933 302.98 278.232C304.452 278.637 305.646 279.043 306.564 279.448C307.502 279.853 308.292 280.483 308.932 281.336C309.593 282.168 309.924 283.288 309.924 284.696C309.924 285.827 309.614 286.893 308.996 287.896C308.398 288.899 307.513 289.709 306.34 290.328C305.188 290.925 303.822 291.224 302.244 291.224ZM313.012 282.168C313.012 280.355 313.375 278.765 314.1 277.4C314.847 276.013 315.871 274.947 317.172 274.2C318.473 273.453 319.967 273.08 321.652 273.08C323.785 273.08 325.545 273.592 326.932 274.616C328.34 275.619 329.289 277.059 329.78 278.936H325.844C325.524 278.061 325.012 277.379 324.308 276.888C323.604 276.397 322.719 276.152 321.652 276.152C320.159 276.152 318.964 276.685 318.068 277.752C317.193 278.797 316.756 280.269 316.756 282.168C316.756 284.067 317.193 285.549 318.068 286.616C318.964 287.683 320.159 288.216 321.652 288.216C323.764 288.216 325.161 287.288 325.844 285.432H329.78C329.268 287.224 328.308 288.653 326.9 289.72C325.492 290.765 323.743 291.288 321.652 291.288C319.967 291.288 318.473 290.915 317.172 290.168C315.871 289.4 314.847 288.333 314.1 286.968C313.375 285.581 313.012 283.981 313.012 282.168ZM332.2 282.104C332.2 280.333 332.562 278.765 333.288 277.4C334.034 276.035 335.037 274.979 336.296 274.232C337.576 273.464 338.984 273.08 340.52 273.08C341.906 273.08 343.112 273.357 344.136 273.912C345.181 274.445 346.013 275.117 346.632 275.928V273.368H350.312V291H346.632V288.376C346.013 289.208 345.17 289.901 344.104 290.456C343.037 291.011 341.821 291.288 340.456 291.288C338.941 291.288 337.554 290.904 336.296 290.136C335.037 289.347 334.034 288.259 333.288 286.872C332.562 285.464 332.2 283.875 332.2 282.104ZM346.632 282.168C346.632 280.952 346.376 279.896 345.864 279C345.373 278.104 344.722 277.421 343.912 276.952C343.101 276.483 342.226 276.248 341.288 276.248C340.349 276.248 339.474 276.483 338.664 276.952C337.853 277.4 337.192 278.072 336.68 278.968C336.189 279.843 335.944 280.888 335.944 282.104C335.944 283.32 336.189 284.387 336.68 285.304C337.192 286.221 337.853 286.925 338.664 287.416C339.496 287.885 340.37 288.12 341.288 288.12C342.226 288.12 343.101 287.885 343.912 287.416C344.722 286.947 345.373 286.264 345.864 285.368C346.376 284.451 346.632 283.384 346.632 282.168ZM363.999 273.08C365.386 273.08 366.623 273.368 367.711 273.944C368.82 274.52 369.684 275.373 370.303 276.504C370.922 277.635 371.231 279 371.231 280.6V291H367.615V281.144C367.615 279.565 367.22 278.36 366.431 277.528C365.642 276.675 364.564 276.248 363.199 276.248C361.834 276.248 360.746 276.675 359.935 277.528C359.146 278.36 358.751 279.565 358.751 281.144V291H355.103V273.368H358.751V275.384C359.348 274.659 360.106 274.093 361.023 273.688C361.962 273.283 362.954 273.08 363.999 273.08ZM401.381 291L398.629 288.248C397.562 289.315 396.4 290.115 395.141 290.648C393.882 291.16 392.474 291.416 390.917 291.416C389.338 291.416 387.941 291.139 386.725 290.584C385.509 290.029 384.57 289.24 383.909 288.216C383.248 287.171 382.917 285.965 382.917 284.6C382.917 283.064 383.354 281.699 384.229 280.504C385.104 279.288 386.405 278.328 388.133 277.624C387.514 276.877 387.077 276.184 386.821 275.544C386.565 274.883 386.437 274.157 386.437 273.368C386.437 272.387 386.682 271.512 387.173 270.744C387.685 269.976 388.41 269.368 389.349 268.92C390.288 268.472 391.376 268.248 392.613 268.248C393.872 268.248 394.938 268.493 395.813 268.984C396.709 269.453 397.37 270.104 397.797 270.936C398.245 271.768 398.426 272.696 398.341 273.72H394.693C394.714 272.931 394.522 272.323 394.117 271.896C393.712 271.448 393.157 271.224 392.453 271.224C391.749 271.224 391.173 271.437 390.725 271.864C390.298 272.269 390.085 272.771 390.085 273.368C390.085 273.944 390.245 274.52 390.565 275.096C390.906 275.651 391.493 276.376 392.325 277.272L398.213 283.128L400.485 279.384H404.421L401.541 284.312L400.741 285.624L406.149 291H401.381ZM390.917 288.312C392.922 288.312 394.693 287.491 396.229 285.848L390.341 279.928C387.824 280.931 386.565 282.445 386.565 284.472C386.565 285.56 386.97 286.477 387.781 287.224C388.592 287.949 389.637 288.312 390.917 288.312ZM432.405 275.384C432.405 276.515 432.138 277.581 431.605 278.584C431.072 279.587 430.218 280.408 429.045 281.048C427.872 281.667 426.368 281.976 424.533 281.976H420.501V291H416.853V268.76H424.533C426.24 268.76 427.68 269.059 428.853 269.656C430.048 270.232 430.933 271.021 431.509 272.024C432.106 273.027 432.405 274.147 432.405 275.384ZM424.533 279C425.92 279 426.954 278.691 427.637 278.072C428.32 277.432 428.661 276.536 428.661 275.384C428.661 272.952 427.285 271.736 424.533 271.736H420.501V279H424.533ZM439.532 275.928C440.066 275.032 440.77 274.339 441.644 273.848C442.54 273.336 443.596 273.08 444.812 273.08V276.856H443.884C442.455 276.856 441.367 277.219 440.62 277.944C439.895 278.669 439.532 279.928 439.532 281.72V291H435.884V273.368H439.532V275.928ZM450.022 271.032C449.36 271.032 448.806 270.808 448.358 270.36C447.91 269.912 447.686 269.357 447.686 268.696C447.686 268.035 447.91 267.48 448.358 267.032C448.806 266.584 449.36 266.36 450.022 266.36C450.662 266.36 451.206 266.584 451.654 267.032C452.102 267.48 452.326 268.035 452.326 268.696C452.326 269.357 452.102 269.912 451.654 270.36C451.206 270.808 450.662 271.032 450.022 271.032ZM451.814 273.368V291H448.166V273.368H451.814ZM465.499 273.08C466.886 273.08 468.123 273.368 469.211 273.944C470.32 274.52 471.184 275.373 471.803 276.504C472.422 277.635 472.731 279 472.731 280.6V291H469.115V281.144C469.115 279.565 468.72 278.36 467.931 277.528C467.142 276.675 466.064 276.248 464.699 276.248C463.334 276.248 462.246 276.675 461.435 277.528C460.646 278.36 460.251 279.565 460.251 281.144V291H456.603V273.368H460.251V275.384C460.848 274.659 461.606 274.093 462.523 273.688C463.462 273.283 464.454 273.08 465.499 273.08ZM481.64 276.344V286.104C481.64 286.765 481.79 287.245 482.088 287.544C482.408 287.821 482.942 287.96 483.688 287.96H485.928V291H483.048C481.406 291 480.147 290.616 479.272 289.848C478.398 289.08 477.96 287.832 477.96 286.104V276.344H475.88V273.368H477.96V268.984H481.64V273.368H485.928V276.344H481.64Z" fill="#191D23"/>
<path d="M9.73835 41V17.144H0.330354V11.6H25.9504V17.144H16.5424V41H9.73835ZM38.0664 41.336C35.4904 41.336 33.2224 40.832 31.2624 39.824C29.3304 38.816 27.8324 37.444 26.7684 35.708C25.7044 33.944 25.1724 31.942 25.1724 29.702C25.1724 27.434 25.6904 25.432 26.7264 23.696C27.7904 21.932 29.2324 20.56 31.0524 19.58C32.8724 18.572 34.9304 18.068 37.2264 18.068C39.4384 18.068 41.4264 18.544 43.1904 19.496C44.9824 20.42 46.3964 21.764 47.4324 23.528C48.4684 25.264 48.9864 27.35 48.9864 29.786C48.9864 30.038 48.9724 30.332 48.9444 30.668C48.9164 30.976 48.8884 31.27 48.8604 31.55H30.5064V27.728H45.4164L42.8964 28.862C42.8964 27.686 42.6584 26.664 42.1824 25.796C41.7064 24.928 41.0484 24.256 40.2084 23.78C39.3684 23.276 38.3884 23.024 37.2684 23.024C36.1484 23.024 35.1544 23.276 34.2864 23.78C33.4464 24.256 32.7884 24.942 32.3124 25.838C31.8364 26.706 31.5984 27.742 31.5984 28.946V29.954C31.5984 31.186 31.8644 32.278 32.3964 33.23C32.9564 34.154 33.7264 34.868 34.7064 35.372C35.7144 35.848 36.8904 36.086 38.2344 36.086C39.4384 36.086 40.4884 35.904 41.3844 35.54C42.3084 35.176 43.1484 34.63 43.9044 33.902L47.3904 37.682C46.3544 38.858 45.0524 39.768 43.4844 40.412C41.9164 41.028 40.1104 41.336 38.0664 41.336ZM53.3485 41V18.404H59.6065V24.788L58.7245 22.94C59.3965 21.344 60.4745 20.14 61.9585 19.328C63.4425 18.488 65.2485 18.068 67.3765 18.068V24.116C67.0965 24.088 66.8445 24.074 66.6205 24.074C66.3965 24.046 66.1585 24.032 65.9065 24.032C64.1145 24.032 62.6585 24.55 61.5385 25.586C60.4465 26.594 59.9005 28.176 59.9005 30.332V41H53.3485ZM85.0473 18.068C86.8393 18.068 88.4353 18.432 89.8353 19.16C91.2633 19.86 92.3833 20.952 93.1953 22.436C94.0073 23.892 94.4133 25.768 94.4133 28.064V41H87.8613V29.072C87.8613 27.252 87.4553 25.908 86.6433 25.04C85.8593 24.172 84.7393 23.738 83.2833 23.738C82.2473 23.738 81.3093 23.962 80.4693 24.41C79.6573 24.83 79.0133 25.488 78.5373 26.384C78.0893 27.28 77.8653 28.428 77.8653 29.828V41H71.3133V9.836H77.8653V24.662L76.3953 22.772C77.2073 21.26 78.3693 20.098 79.8813 19.286C81.3933 18.474 83.1153 18.068 85.0473 18.068ZM109.886 41.336C108.01 41.336 106.33 40.972 104.846 40.244C103.39 39.516 102.256 38.41 101.444 36.926C100.632 35.414 100.226 33.496 100.226 31.172V18.404H106.778V30.206C106.778 32.082 107.17 33.468 107.954 34.364C108.766 35.232 109.9 35.666 111.356 35.666C112.364 35.666 113.26 35.456 114.044 35.036C114.828 34.588 115.444 33.916 115.892 33.02C116.34 32.096 116.564 30.948 116.564 29.576V18.404H123.116V41H116.9V34.784L118.034 36.59C117.278 38.158 116.158 39.348 114.674 40.16C113.218 40.944 111.622 41.336 109.886 41.336ZM142.542 41.336C140.554 41.336 138.846 40.916 137.418 40.076C135.99 39.236 134.898 37.962 134.142 36.254C133.386 34.518 133.008 32.334 133.008 29.702C133.008 27.042 133.4 24.858 134.184 23.15C134.996 21.442 136.116 20.168 137.544 19.328C138.972 18.488 140.638 18.068 142.542 18.068C144.67 18.068 146.574 18.544 148.254 19.496C149.962 20.448 151.306 21.792 152.286 23.528C153.294 25.264 153.798 27.322 153.798 29.702C153.798 32.054 153.294 34.098 152.286 35.834C151.306 37.57 149.962 38.928 148.254 39.908C146.574 40.86 144.67 41.336 142.542 41.336ZM129.186 41V9.836H135.738V22.982L135.318 29.66L135.444 36.38V41H129.186ZM141.408 35.96C142.5 35.96 143.466 35.708 144.306 35.204C145.174 34.7 145.86 33.986 146.364 33.062C146.896 32.11 147.162 30.99 147.162 29.702C147.162 28.386 146.896 27.266 146.364 26.342C145.86 25.418 145.174 24.704 144.306 24.2C143.466 23.696 142.5 23.444 141.408 23.444C140.316 23.444 139.336 23.696 138.468 24.2C137.6 24.704 136.914 25.418 136.41 26.342C135.906 27.266 135.654 28.386 135.654 29.702C135.654 30.99 135.906 32.11 136.41 33.062C136.914 33.986 137.6 34.7 138.468 35.204C139.336 35.708 140.316 35.96 141.408 35.96ZM167.718 41.336C165.842 41.336 164.162 40.972 162.678 40.244C161.222 39.516 160.088 38.41 159.276 36.926C158.464 35.414 158.058 33.496 158.058 31.172V18.404H164.61V30.206C164.61 32.082 165.002 33.468 165.786 34.364C166.598 35.232 167.732 35.666 169.188 35.666C170.196 35.666 171.092 35.456 171.876 35.036C172.66 34.588 173.276 33.916 173.724 33.02C174.172 32.096 174.396 30.948 174.396 29.576V18.404H180.948V41H174.732V34.784L175.866 36.59C175.11 38.158 173.99 39.348 172.506 40.16C171.05 40.944 169.454 41.336 167.718 41.336ZM200.752 18.068C202.544 18.068 204.14 18.432 205.54 19.16C206.968 19.86 208.088 20.952 208.9 22.436C209.712 23.892 210.118 25.768 210.118 28.064V41H203.566V29.072C203.566 27.252 203.16 25.908 202.348 25.04C201.564 24.172 200.444 23.738 198.988 23.738C197.952 23.738 197.014 23.962 196.174 24.41C195.362 24.83 194.718 25.488 194.242 26.384C193.794 27.28 193.57 28.428 193.57 29.828V41H187.018V18.404H193.276V24.662L192.1 22.772C192.912 21.26 194.074 20.098 195.586 19.286C197.098 18.474 198.82 18.068 200.752 18.068ZM226.848 49.484C224.72 49.484 222.662 49.218 220.674 48.686C218.714 48.182 217.076 47.412 215.76 46.376L218.364 41.672C219.316 42.456 220.52 43.072 221.976 43.52C223.46 43.996 224.916 44.234 226.344 44.234C228.668 44.234 230.348 43.716 231.384 42.68C232.448 41.644 232.98 40.104 232.98 38.06V34.658L233.4 28.988L233.316 23.276V18.404H239.532V37.22C239.532 41.42 238.44 44.514 236.256 46.502C234.072 48.49 230.936 49.484 226.848 49.484ZM225.84 39.908C223.74 39.908 221.836 39.46 220.128 38.564C218.448 37.64 217.09 36.366 216.054 34.742C215.046 33.09 214.542 31.172 214.542 28.988C214.542 26.776 215.046 24.858 216.054 23.234C217.09 21.582 218.448 20.308 220.128 19.412C221.836 18.516 223.74 18.068 225.84 18.068C227.744 18.068 229.424 18.46 230.88 19.244C232.336 20 233.47 21.19 234.282 22.814C235.094 24.41 235.5 26.468 235.5 28.988C235.5 31.48 235.094 33.538 234.282 35.162C233.47 36.758 232.336 37.948 230.88 38.732C229.424 39.516 227.744 39.908 225.84 39.908ZM227.142 34.532C228.29 34.532 229.312 34.308 230.208 33.86C231.104 33.384 231.804 32.726 232.308 31.886C232.812 31.046 233.064 30.08 233.064 28.988C233.064 27.868 232.812 26.902 232.308 26.09C231.804 25.25 231.104 24.606 230.208 24.158C229.312 23.682 228.29 23.444 227.142 23.444C225.994 23.444 224.972 23.682 224.076 24.158C223.18 24.606 222.466 25.25 221.934 26.09C221.43 26.902 221.178 27.868 221.178 28.988C221.178 30.08 221.43 31.046 221.934 31.886C222.466 32.726 223.18 33.384 224.076 33.86C224.972 34.308 225.994 34.532 227.142 34.532ZM245.63 41V9.836H252.182V41H245.63ZM272.123 41V36.59L271.703 35.624V27.728C271.703 26.328 271.269 25.236 270.401 24.452C269.561 23.668 268.259 23.276 266.495 23.276C265.291 23.276 264.101 23.472 262.925 23.864C261.777 24.228 260.797 24.732 259.985 25.376L257.633 20.798C258.865 19.93 260.349 19.258 262.085 18.782C263.821 18.306 265.585 18.068 267.377 18.068C270.821 18.068 273.495 18.88 275.399 20.504C277.303 22.128 278.255 24.662 278.255 28.106V41H272.123ZM265.235 41.336C263.471 41.336 261.959 41.042 260.699 40.454C259.439 39.838 258.473 39.012 257.801 37.976C257.129 36.94 256.793 35.778 256.793 34.49C256.793 33.146 257.115 31.97 257.759 30.962C258.431 29.954 259.481 29.17 260.909 28.61C262.337 28.022 264.199 27.728 266.495 27.728H272.501V31.55H267.209C265.669 31.55 264.605 31.802 264.017 32.306C263.457 32.81 263.177 33.44 263.177 34.196C263.177 35.036 263.499 35.708 264.143 36.212C264.815 36.688 265.725 36.926 266.873 36.926C267.965 36.926 268.945 36.674 269.813 36.17C270.681 35.638 271.311 34.868 271.703 33.86L272.711 36.884C272.235 38.34 271.367 39.446 270.107 40.202C268.847 40.958 267.223 41.336 265.235 41.336ZM297.918 18.068C299.71 18.068 301.306 18.432 302.706 19.16C304.134 19.86 305.254 20.952 306.066 22.436C306.878 23.892 307.284 25.768 307.284 28.064V41H300.732V29.072C300.732 27.252 300.326 25.908 299.514 25.04C298.73 24.172 297.61 23.738 296.154 23.738C295.118 23.738 294.18 23.962 293.34 24.41C292.528 24.83 291.884 25.488 291.408 26.384C290.96 27.28 290.736 28.428 290.736 29.828V41H284.184V9.836H290.736V24.662L289.266 22.772C290.078 21.26 291.24 20.098 292.752 19.286C294.264 18.474 295.986 18.068 297.918 18.068ZM3.64835 92V62.6H18.0124C21.7084 62.6 24.4804 63.3 26.3284 64.7C28.2044 66.1 29.1424 67.948 29.1424 70.244C29.1424 71.784 28.7644 73.128 28.0084 74.276C27.2524 75.396 26.2164 76.264 24.9004 76.88C23.5844 77.496 22.0724 77.804 20.3644 77.804L21.1624 76.082C23.0104 76.082 24.6484 76.39 26.0764 77.006C27.5044 77.594 28.6104 78.476 29.3944 79.652C30.2064 80.828 30.6124 82.27 30.6124 83.978C30.6124 86.498 29.6184 88.472 27.6304 89.9C25.6424 91.3 22.7164 92 18.8524 92H3.64835ZM10.4104 86.876H18.3484C20.1124 86.876 21.4424 86.596 22.3384 86.036C23.2624 85.448 23.7244 84.524 23.7244 83.264C23.7244 82.032 23.2624 81.122 22.3384 80.534C21.4424 79.918 20.1124 79.61 18.3484 79.61H9.90635V74.654H17.1724C18.8244 74.654 20.0844 74.374 20.9524 73.814C21.8484 73.226 22.2964 72.344 22.2964 71.168C22.2964 70.02 21.8484 69.166 20.9524 68.606C20.0844 68.018 18.8244 67.724 17.1724 67.724H10.4104V86.876ZM46.5156 92.336C43.9396 92.336 41.6716 91.832 39.7116 90.824C37.7796 89.816 36.2816 88.444 35.2176 86.708C34.1536 84.944 33.6216 82.942 33.6216 80.702C33.6216 78.434 34.1396 76.432 35.1756 74.696C36.2396 72.932 37.6816 71.56 39.5016 70.58C41.3216 69.572 43.3796 69.068 45.6756 69.068C47.8876 69.068 49.8756 69.544 51.6396 70.496C53.4316 71.42 54.8456 72.764 55.8816 74.528C56.9176 76.264 57.4356 78.35 57.4356 80.786C57.4356 81.038 57.4216 81.332 57.3936 81.668C57.3656 81.976 57.3376 82.27 57.3096 82.55H38.9556V78.728H53.8656L51.3456 79.862C51.3456 78.686 51.1076 77.664 50.6316 76.796C50.1556 75.928 49.4976 75.256 48.6576 74.78C47.8176 74.276 46.8376 74.024 45.7176 74.024C44.5976 74.024 43.6036 74.276 42.7356 74.78C41.8956 75.256 41.2376 75.942 40.7616 76.838C40.2856 77.706 40.0476 78.742 40.0476 79.946V80.954C40.0476 82.186 40.3136 83.278 40.8456 84.23C41.4056 85.154 42.1756 85.868 43.1556 86.372C44.1636 86.848 45.3396 87.086 46.6836 87.086C47.8876 87.086 48.9376 86.904 49.8336 86.54C50.7576 86.176 51.5976 85.63 52.3536 84.902L55.8396 88.682C54.8036 89.858 53.5016 90.768 51.9336 91.412C50.3656 92.028 48.5596 92.336 46.5156 92.336ZM61.7977 92V69.404H68.0557V75.788L67.1737 73.94C67.8457 72.344 68.9237 71.14 70.4077 70.328C71.8917 69.488 73.6977 69.068 75.8257 69.068V75.116C75.5457 75.088 75.2937 75.074 75.0697 75.074C74.8457 75.046 74.6077 75.032 74.3557 75.032C72.5637 75.032 71.1077 75.55 69.9877 76.586C68.8957 77.594 68.3497 79.176 68.3497 81.332V92H61.7977ZM87.4876 92.336C85.5556 92.336 83.6936 92.112 81.9016 91.664C80.1376 91.188 78.7376 90.6 77.7016 89.9L79.8856 85.196C80.9216 85.84 82.1396 86.372 83.5396 86.792C84.9676 87.184 86.3676 87.38 87.7396 87.38C89.2516 87.38 90.3156 87.198 90.9316 86.834C91.5756 86.47 91.8976 85.966 91.8976 85.322C91.8976 84.79 91.6456 84.398 91.1416 84.146C90.6656 83.866 90.0216 83.656 89.2096 83.516C88.3976 83.376 87.5016 83.236 86.5216 83.096C85.5696 82.956 84.6036 82.774 83.6236 82.55C82.6436 82.298 81.7476 81.934 80.9356 81.458C80.1236 80.982 79.4656 80.338 78.9616 79.526C78.4856 78.714 78.2476 77.664 78.2476 76.376C78.2476 74.948 78.6536 73.688 79.4656 72.596C80.3056 71.504 81.5096 70.65 83.0776 70.034C84.6456 69.39 86.5216 69.068 88.7056 69.068C90.2456 69.068 91.8136 69.236 93.4096 69.572C95.0056 69.908 96.3356 70.398 97.3996 71.042L95.2156 75.704C94.1236 75.06 93.0176 74.626 91.8976 74.402C90.8056 74.15 89.7416 74.024 88.7056 74.024C87.2496 74.024 86.1856 74.22 85.5136 74.612C84.8416 75.004 84.5056 75.508 84.5056 76.124C84.5056 76.684 84.7436 77.104 85.2196 77.384C85.7236 77.664 86.3816 77.888 87.1936 78.056C88.0056 78.224 88.8876 78.378 89.8396 78.518C90.8196 78.63 91.7996 78.812 92.7796 79.064C93.7596 79.316 94.6416 79.68 95.4256 80.156C96.2376 80.604 96.8956 81.234 97.3996 82.046C97.9036 82.83 98.1556 83.866 98.1556 85.154C98.1556 86.554 97.7356 87.8 96.8956 88.892C96.0556 89.956 94.8376 90.796 93.2416 91.412C91.6736 92.028 89.7556 92.336 87.4876 92.336ZM116.058 92V87.59L115.638 86.624V78.728C115.638 77.328 115.204 76.236 114.336 75.452C113.496 74.668 112.194 74.276 110.43 74.276C109.226 74.276 108.036 74.472 106.86 74.864C105.712 75.228 104.732 75.732 103.92 76.376L101.568 71.798C102.8 70.93 104.284 70.258 106.02 69.782C107.756 69.306 109.52 69.068 111.312 69.068C114.756 69.068 117.43 69.88 119.334 71.504C121.238 73.128 122.19 75.662 122.19 79.106V92H116.058ZM109.17 92.336C107.406 92.336 105.894 92.042 104.634 91.454C103.374 90.838 102.408 90.012 101.736 88.976C101.064 87.94 100.728 86.778 100.728 85.49C100.728 84.146 101.05 82.97 101.694 81.962C102.366 80.954 103.416 80.17 104.844 79.61C106.272 79.022 108.134 78.728 110.43 78.728H116.436V82.55H111.144C109.604 82.55 108.54 82.802 107.952 83.306C107.392 83.81 107.112 84.44 107.112 85.196C107.112 86.036 107.434 86.708 108.078 87.212C108.75 87.688 109.66 87.926 110.808 87.926C111.9 87.926 112.88 87.674 113.748 87.17C114.616 86.638 115.246 85.868 115.638 84.86L116.646 87.884C116.17 89.34 115.302 90.446 114.042 91.202C112.782 91.958 111.158 92.336 109.17 92.336ZM157.058 69.068C158.85 69.068 160.432 69.432 161.804 70.16C163.204 70.86 164.296 71.952 165.08 73.436C165.892 74.892 166.298 76.768 166.298 79.064V92H159.746V80.072C159.746 78.252 159.368 76.908 158.612 76.04C157.856 75.172 156.792 74.738 155.42 74.738C154.468 74.738 153.614 74.962 152.858 75.41C152.102 75.83 151.514 76.474 151.094 77.342C150.674 78.21 150.464 79.316 150.464 80.66V92H143.912V80.072C143.912 78.252 143.534 76.908 142.778 76.04C142.05 75.172 141 74.738 139.628 74.738C138.676 74.738 137.822 74.962 137.066 75.41C136.31 75.83 135.722 76.474 135.302 77.342C134.882 78.21 134.672 79.316 134.672 80.66V92H128.12V69.404H134.378V75.578L133.202 73.772C133.986 72.232 135.092 71.07 136.52 70.286C137.976 69.474 139.628 69.068 141.476 69.068C143.548 69.068 145.354 69.6 146.894 70.664C148.462 71.7 149.498 73.296 150.002 75.452L147.692 74.822C148.448 73.058 149.652 71.658 151.304 70.622C152.984 69.586 154.902 69.068 157.058 69.068ZM186.031 92V87.59L185.611 86.624V78.728C185.611 77.328 185.177 76.236 184.309 75.452C183.469 74.668 182.167 74.276 180.403 74.276C179.199 74.276 178.009 74.472 176.833 74.864C175.685 75.228 174.705 75.732 173.893 76.376L171.541 71.798C172.773 70.93 174.257 70.258 175.993 69.782C177.729 69.306 179.493 69.068 181.285 69.068C184.729 69.068 187.403 69.88 189.307 71.504C191.211 73.128 192.163 75.662 192.163 79.106V92H186.031ZM179.143 92.336C177.379 92.336 175.867 92.042 174.607 91.454C173.347 90.838 172.381 90.012 171.709 88.976C171.037 87.94 170.701 86.778 170.701 85.49C170.701 84.146 171.023 82.97 171.667 81.962C172.339 80.954 173.389 80.17 174.817 79.61C176.245 79.022 178.107 78.728 180.403 78.728H186.409V82.55H181.117C179.577 82.55 178.513 82.802 177.925 83.306C177.365 83.81 177.085 84.44 177.085 85.196C177.085 86.036 177.407 86.708 178.051 87.212C178.723 87.688 179.633 87.926 180.781 87.926C181.873 87.926 182.853 87.674 183.721 87.17C184.589 86.638 185.219 85.868 185.611 84.86L186.619 87.884C186.143 89.34 185.275 90.446 184.015 91.202C182.755 91.958 181.131 92.336 179.143 92.336ZM216.539 85.28L216.161 77.426L230.231 62.6H237.791L225.107 76.25L221.327 80.282L216.539 85.28ZM210.449 92V62.6H217.211V92H210.449ZM230.567 92L220.109 79.19L224.561 74.36L238.505 92H230.567ZM254.445 92V87.59L254.025 86.624V78.728C254.025 77.328 253.591 76.236 252.723 75.452C251.883 74.668 250.581 74.276 248.817 74.276C247.613 74.276 246.423 74.472 245.247 74.864C244.099 75.228 243.119 75.732 242.307 76.376L239.955 71.798C241.187 70.93 242.671 70.258 244.407 69.782C246.143 69.306 247.907 69.068 249.699 69.068C253.143 69.068 255.817 69.88 257.721 71.504C259.625 73.128 260.577 75.662 260.577 79.106V92H254.445ZM247.557 92.336C245.793 92.336 244.281 92.042 243.021 91.454C241.761 90.838 240.795 90.012 240.123 88.976C239.451 87.94 239.115 86.778 239.115 85.49C239.115 84.146 239.437 82.97 240.081 81.962C240.753 80.954 241.803 80.17 243.231 79.61C244.659 79.022 246.521 78.728 248.817 78.728H254.823V82.55H249.531C247.991 82.55 246.927 82.802 246.339 83.306C245.779 83.81 245.499 84.44 245.499 85.196C245.499 86.036 245.821 86.708 246.465 87.212C247.137 87.688 248.047 87.926 249.195 87.926C250.287 87.926 251.267 87.674 252.135 87.17C253.003 86.638 253.633 85.868 254.025 84.86L255.033 87.884C254.557 89.34 253.689 90.446 252.429 91.202C251.169 91.958 249.545 92.336 247.557 92.336ZM295.445 69.068C297.237 69.068 298.819 69.432 300.191 70.16C301.591 70.86 302.683 71.952 303.467 73.436C304.279 74.892 304.685 76.768 304.685 79.064V92H298.133V80.072C298.133 78.252 297.755 76.908 296.999 76.04C296.243 75.172 295.179 74.738 293.807 74.738C292.855 74.738 292.001 74.962 291.245 75.41C290.489 75.83 289.901 76.474 289.481 77.342C289.061 78.21 288.851 79.316 288.851 80.66V92H282.299V80.072C282.299 78.252 281.921 76.908 281.165 76.04C280.437 75.172 279.387 74.738 278.015 74.738C277.063 74.738 276.209 74.962 275.453 75.41C274.697 75.83 274.109 76.474 273.689 77.342C273.269 78.21 273.059 79.316 273.059 80.66V92H266.507V69.404H272.765V75.578L271.589 73.772C272.373 72.232 273.479 71.07 274.907 70.286C276.363 69.474 278.015 69.068 279.863 69.068C281.935 69.068 283.741 69.6 285.281 70.664C286.849 71.7 287.885 73.296 288.389 75.452L286.079 74.822C286.835 73.058 288.039 71.658 289.691 70.622C291.371 69.586 293.289 69.068 295.445 69.068ZM310.557 92V69.404H317.109V92H310.557ZM313.833 66.254C312.629 66.254 311.649 65.904 310.893 65.204C310.137 64.504 309.759 63.636 309.759 62.6C309.759 61.564 310.137 60.696 310.893 59.996C311.649 59.296 312.629 58.946 313.833 58.946C315.037 58.946 316.017 59.282 316.773 59.954C317.529 60.598 317.907 61.438 317.907 62.474C317.907 63.566 317.529 64.476 316.773 65.204C316.045 65.904 315.065 66.254 313.833 66.254ZM335.547 81.794L334.245 62.6H342.057L340.755 81.794H335.547ZM338.151 92.336C336.975 92.336 336.009 91.958 335.253 91.202C334.497 90.446 334.119 89.55 334.119 88.514C334.119 87.45 334.497 86.568 335.253 85.868C336.009 85.14 336.975 84.776 338.151 84.776C339.355 84.776 340.321 85.14 341.049 85.868C341.805 86.568 342.183 87.45 342.183 88.514C342.183 89.55 341.805 90.446 341.049 91.202C340.321 91.958 339.355 92.336 338.151 92.336ZM347.687 81.794L346.385 62.6H354.197L352.895 81.794H347.687ZM350.291 92.336C349.115 92.336 348.149 91.958 347.393 91.202C346.637 90.446 346.259 89.55 346.259 88.514C346.259 87.45 346.637 86.568 347.393 85.868C348.149 85.14 349.115 84.776 350.291 84.776C351.495 84.776 352.461 85.14 353.189 85.868C353.945 86.568 354.323 87.45 354.323 88.514C354.323 89.55 353.945 90.446 353.189 91.202C352.461 91.958 351.495 92.336 350.291 92.336ZM359.828 81.794L358.526 62.6H366.338L365.036 81.794H359.828ZM362.432 92.336C361.256 92.336 360.29 91.958 359.534 91.202C358.778 90.446 358.4 89.55 358.4 88.514C358.4 87.45 358.778 86.568 359.534 85.868C360.29 85.14 361.256 84.776 362.432 84.776C363.636 84.776 364.602 85.14 365.33 85.868C366.086 86.568 366.464 87.45 366.464 88.514C366.464 89.55 366.086 90.446 365.33 91.202C364.602 91.958 363.636 92.336 362.432 92.336Z" fill="#191D23"/>
</svg>
