<svg xmlns="http://www.w3.org/2000/svg" xmlns:xlink="http://www.w3.org/1999/xlink" width="2267" zoomAndPan="magnify" viewBox="0 0 1700.88 1700.999932" height="2267" preserveAspectRatio="xMidYMid meet" version="1.0"><defs><g/><clipPath id="0e53a57313"><path d="M 0 0.0585938 L 1700.761719 0.0585938 L 1700.761719 1700.9375 L 0 1700.9375 Z M 0 0.0585938 " clip-rule="nonzero"/></clipPath><clipPath id="d503dc30a9"><path d="M 125.003906 360.570312 L 343 360.570312 L 343 578 L 125.003906 578 Z M 125.003906 360.570312 " clip-rule="nonzero"/></clipPath><clipPath id="b007d6d4c2"><path d="M 129 363 L 387.484375 363 L 387.484375 698 L 129 698 Z M 129 363 " clip-rule="nonzero"/></clipPath><clipPath id="aa2aacb763"><path d="M 209 689 L 305 689 L 305 719.042969 L 209 719.042969 Z M 209 689 " clip-rule="nonzero"/></clipPath></defs><g clip-path="url(#0e53a57313)"><path fill="#ffffff" d="M 0 0.0585938 L 1700.878906 0.0585938 L 1700.878906 1700.941406 L 0 1700.941406 Z M 0 0.0585938 " fill-opacity="1" fill-rule="nonzero"/><path fill="#ffffff" d="M 0 0.0585938 L 1700.878906 0.0585938 L 1700.878906 1700.941406 L 0 1700.941406 Z M 0 0.0585938 " fill-opacity="1" fill-rule="nonzero"/></g><g clip-path="url(#d503dc30a9)"><path fill="#ffde59" d="M 342.648438 469.042969 C 342.648438 470.820312 342.605469 472.59375 342.515625 474.367188 C 342.429688 476.140625 342.300781 477.910156 342.125 479.675781 C 341.949219 481.441406 341.734375 483.203125 341.472656 484.960938 C 341.210938 486.714844 340.90625 488.464844 340.558594 490.207031 C 340.214844 491.949219 339.824219 493.679688 339.390625 495.402344 C 338.960938 497.125 338.484375 498.832031 337.96875 500.53125 C 337.453125 502.230469 336.894531 503.917969 336.296875 505.589844 C 335.695312 507.257812 335.058594 508.914062 334.375 510.554688 C 333.695312 512.195312 332.976562 513.816406 332.214844 515.421875 C 331.453125 517.027344 330.65625 518.613281 329.816406 520.179688 C 328.976562 521.742188 328.101562 523.289062 327.1875 524.8125 C 326.273438 526.332031 325.320312 527.832031 324.335938 529.308594 C 323.347656 530.785156 322.324219 532.234375 321.261719 533.664062 C 320.203125 535.089844 319.109375 536.488281 317.980469 537.859375 C 316.851562 539.230469 315.691406 540.574219 314.496094 541.890625 C 313.304688 543.207031 312.078125 544.492188 310.820312 545.746094 C 309.5625 547.003906 308.273438 548.226562 306.957031 549.417969 C 305.640625 550.609375 304.292969 551.769531 302.917969 552.894531 C 301.542969 554.023438 300.140625 555.113281 298.714844 556.171875 C 297.285156 557.230469 295.832031 558.25 294.351562 559.238281 C 292.875 560.222656 291.371094 561.171875 289.847656 562.085938 C 288.320312 563 286.773438 563.875 285.207031 564.710938 C 283.636719 565.546875 282.050781 566.34375 280.441406 567.105469 C 278.835938 567.863281 277.207031 568.582031 275.566406 569.261719 C 273.921875 569.941406 272.265625 570.578125 270.589844 571.175781 C 268.914062 571.777344 267.226562 572.332031 265.523438 572.847656 C 263.824219 573.363281 262.109375 573.835938 260.382812 574.265625 C 258.660156 574.699219 256.925781 575.085938 255.179688 575.433594 C 253.4375 575.78125 251.683594 576.082031 249.925781 576.34375 C 248.167969 576.605469 246.402344 576.820312 244.632812 576.996094 C 242.863281 577.171875 241.089844 577.300781 239.3125 577.386719 C 237.535156 577.476562 235.757812 577.519531 233.980469 577.519531 C 232.203125 577.519531 230.425781 577.476562 228.648438 577.386719 C 226.871094 577.300781 225.097656 577.171875 223.328125 576.996094 C 221.558594 576.820312 219.796875 576.605469 218.035156 576.34375 C 216.277344 576.082031 214.523438 575.78125 212.78125 575.433594 C 211.035156 575.085938 209.300781 574.699219 207.578125 574.269531 C 205.851562 573.835938 204.136719 573.363281 202.4375 572.847656 C 200.734375 572.332031 199.046875 571.777344 197.371094 571.175781 C 195.695312 570.578125 194.039062 569.941406 192.394531 569.261719 C 190.753906 568.582031 189.128906 567.863281 187.519531 567.105469 C 185.910156 566.34375 184.324219 565.546875 182.753906 564.710938 C 181.1875 563.875 179.640625 563 178.113281 562.085938 C 176.589844 561.171875 175.085938 560.222656 173.609375 559.238281 C 172.128906 558.25 170.675781 557.230469 169.246094 556.171875 C 167.820312 555.113281 166.417969 554.023438 165.042969 552.894531 C 163.667969 551.769531 162.320312 550.609375 161.003906 549.417969 C 159.6875 548.226562 158.398438 547.003906 157.140625 545.746094 C 155.882812 544.492188 154.65625 543.207031 153.464844 541.890625 C 152.269531 540.574219 151.109375 539.230469 149.980469 537.859375 C 148.851562 536.488281 147.757812 535.089844 146.699219 533.664062 C 145.640625 532.234375 144.613281 530.785156 143.628906 529.308594 C 142.640625 527.832031 141.6875 526.332031 140.773438 524.8125 C 139.859375 523.289062 138.984375 521.742188 138.144531 520.179688 C 137.304688 518.613281 136.507812 517.027344 135.746094 515.421875 C 134.984375 513.816406 134.265625 512.195312 133.585938 510.554688 C 132.90625 508.914062 132.265625 507.257812 131.664062 505.589844 C 131.066406 503.917969 130.507812 502.230469 129.992188 500.53125 C 129.476562 498.832031 129.003906 497.125 128.570312 495.402344 C 128.136719 493.679688 127.75 491.949219 127.402344 490.207031 C 127.054688 488.464844 126.75 486.714844 126.488281 484.960938 C 126.226562 483.203125 126.011719 481.441406 125.835938 479.675781 C 125.664062 477.910156 125.53125 476.140625 125.445312 474.367188 C 125.355469 472.59375 125.3125 470.820312 125.3125 469.042969 C 125.3125 467.269531 125.355469 465.496094 125.445312 463.722656 C 125.53125 461.949219 125.664062 460.179688 125.835938 458.410156 C 126.011719 456.644531 126.226562 454.882812 126.488281 453.128906 C 126.75 451.371094 127.054688 449.621094 127.402344 447.882812 C 127.75 446.140625 128.136719 444.410156 128.570312 442.6875 C 129.003906 440.964844 129.476562 439.253906 129.992188 437.554688 C 130.507812 435.855469 131.066406 434.171875 131.664062 432.5 C 132.265625 430.828125 132.90625 429.171875 133.585938 427.53125 C 134.265625 425.890625 134.984375 424.269531 135.746094 422.664062 C 136.507812 421.058594 137.304688 419.476562 138.144531 417.910156 C 138.984375 416.34375 139.859375 414.800781 140.773438 413.277344 C 141.6875 411.753906 142.640625 410.253906 143.628906 408.777344 C 144.613281 407.300781 145.640625 405.851562 146.699219 404.425781 C 147.757812 403 148.851562 401.601562 149.980469 400.230469 C 151.109375 398.855469 152.269531 397.511719 153.464844 396.195312 C 154.65625 394.882812 155.882812 393.597656 157.140625 392.339844 C 158.398438 391.085938 159.6875 389.863281 161.003906 388.667969 C 162.320312 387.476562 163.667969 386.316406 165.042969 385.191406 C 166.417969 384.066406 167.820312 382.972656 169.246094 381.917969 C 170.675781 380.859375 172.128906 379.835938 173.609375 378.851562 C 175.085938 377.863281 176.589844 376.914062 178.113281 376.003906 C 179.640625 375.089844 181.1875 374.214844 182.753906 373.378906 C 184.324219 372.542969 185.910156 371.742188 187.519531 370.984375 C 189.128906 370.226562 190.753906 369.507812 192.394531 368.828125 C 194.039062 368.148438 195.695312 367.507812 197.371094 366.910156 C 199.046875 366.3125 200.734375 365.753906 202.4375 365.242188 C 204.136719 364.726562 205.851562 364.25 207.578125 363.820312 C 209.300781 363.390625 211.035156 363 212.78125 362.652344 C 214.523438 362.308594 216.277344 362.003906 218.035156 361.742188 C 219.796875 361.484375 221.558594 361.265625 223.328125 361.09375 C 225.097656 360.917969 226.871094 360.789062 228.648438 360.699219 C 230.425781 360.613281 232.203125 360.570312 233.980469 360.570312 C 235.757812 360.570312 237.535156 360.613281 239.3125 360.699219 C 241.089844 360.789062 242.863281 360.917969 244.632812 361.09375 C 246.402344 361.265625 248.167969 361.484375 249.925781 361.742188 C 251.683594 362.003906 253.4375 362.308594 255.179688 362.652344 C 256.925781 363 258.660156 363.390625 260.382812 363.820312 C 262.109375 364.25 263.824219 364.726562 265.523438 365.242188 C 267.226562 365.753906 268.914062 366.3125 270.589844 366.910156 C 272.265625 367.507812 273.921875 368.148438 275.566406 368.828125 C 277.207031 369.507812 278.835938 370.226562 280.441406 370.984375 C 282.050781 371.742188 283.636719 372.542969 285.207031 373.378906 C 286.773438 374.214844 288.320312 375.089844 289.847656 376.003906 C 291.371094 376.914062 292.875 377.863281 294.351562 378.851562 C 295.832031 379.835938 297.285156 380.859375 298.714844 381.917969 C 300.140625 382.972656 301.542969 384.066406 302.917969 385.191406 C 304.292969 386.316406 305.640625 387.476562 306.957031 388.667969 C 308.273438 389.863281 309.5625 391.085938 310.820312 392.339844 C 312.078125 393.597656 313.304688 394.882812 314.496094 396.195312 C 315.691406 397.511719 316.851562 398.855469 317.980469 400.230469 C 319.109375 401.601562 320.203125 403 321.261719 404.425781 C 322.324219 405.851562 323.347656 407.300781 324.335938 408.777344 C 325.320312 410.253906 326.273438 411.753906 327.1875 413.277344 C 328.101562 414.800781 328.976562 416.34375 329.816406 417.910156 C 330.65625 419.476562 331.453125 421.058594 332.214844 422.664062 C 332.976562 424.269531 333.695312 425.890625 334.375 427.53125 C 335.058594 429.171875 335.695312 430.828125 336.296875 432.5 C 336.894531 434.171875 337.453125 435.855469 337.96875 437.554688 C 338.484375 439.253906 338.960938 440.964844 339.390625 442.6875 C 339.824219 444.410156 340.214844 446.140625 340.558594 447.882812 C 340.90625 449.621094 341.210938 451.371094 341.472656 453.128906 C 341.734375 454.882812 341.949219 456.644531 342.125 458.410156 C 342.300781 460.179688 342.429688 461.949219 342.515625 463.722656 C 342.605469 465.496094 342.648438 467.269531 342.648438 469.042969 Z M 342.648438 469.042969 " fill-opacity="1" fill-rule="nonzero"/></g><g clip-path="url(#b007d6d4c2)"><path fill="#04182d" d="M 319.363281 697.496094 L 197.109375 697.496094 C 195.035156 697.496094 193.351562 695.816406 193.351562 693.742188 L 193.351562 624.066406 C 193.351562 612.054688 187.789062 600.753906 178.089844 593.0625 C 143.296875 565.464844 125.34375 522.527344 130.066406 478.207031 C 136.558594 417.285156 187.71875 368.152344 249.074219 363.914062 C 285.257812 361.414062 319.769531 373.582031 346.175781 398.183594 C 372.21875 422.445312 387.15625 456.746094 387.15625 492.289062 C 387.15625 531.808594 369.332031 568.578125 338.253906 593.164062 C 328.636719 600.773438 323.121094 612.035156 323.121094 624.058594 L 323.121094 693.742188 C 323.121094 695.816406 321.4375 697.496094 319.363281 697.496094 Z M 200.871094 689.988281 L 315.601562 689.988281 L 315.601562 624.058594 C 315.601562 609.726562 322.15625 596.324219 333.582031 587.28125 C 362.851562 564.125 379.636719 529.5 379.636719 492.289062 C 379.636719 458.816406 365.570312 426.515625 341.042969 403.667969 C 316.183594 380.507812 283.734375 369.0625 249.59375 371.402344 C 191.824219 375.390625 143.65625 421.648438 137.542969 479 C 133.097656 520.75 150.003906 561.195312 182.769531 587.1875 C 194.273438 596.308594 200.871094 609.753906 200.871094 624.066406 Z M 200.871094 689.988281 " fill-opacity="1" fill-rule="nonzero"/></g><g clip-path="url(#aa2aacb763)"><path fill="#04182d" d="M 257.320312 719.042969 C 230.625 719.042969 209.714844 707.929688 209.714844 693.742188 C 209.714844 691.667969 211.398438 689.988281 213.472656 689.988281 C 215.550781 689.988281 217.234375 691.667969 217.234375 693.742188 C 217.234375 702.160156 233.695312 711.539062 257.320312 711.539062 C 280.945312 711.539062 297.410156 702.160156 297.410156 693.742188 C 297.410156 691.667969 299.09375 689.988281 301.171875 689.988281 C 303.246094 689.988281 304.929688 691.667969 304.929688 693.742188 C 304.929688 707.929688 284.015625 719.042969 257.320312 719.042969 Z M 257.320312 719.042969 " fill-opacity="1" fill-rule="nonzero"/></g><path fill="#04182d" d="M 182.554688 627.820312 C 180.597656 627.820312 178.945312 626.304688 178.808594 624.328125 C 178.664062 622.257812 180.226562 620.464844 182.296875 620.320312 L 333.65625 609.851562 C 335.785156 609.730469 337.523438 611.269531 337.667969 613.335938 C 337.808594 615.40625 336.246094 617.199219 334.175781 617.339844 L 182.820312 627.808594 C 182.730469 627.816406 182.640625 627.820312 182.554688 627.820312 Z M 182.554688 627.820312 " fill-opacity="1" fill-rule="nonzero"/><path fill="#04182d" d="M 182.554688 651.824219 C 180.597656 651.824219 178.945312 650.308594 178.808594 648.332031 C 178.664062 646.261719 180.226562 644.46875 182.296875 644.328125 L 333.65625 633.855469 C 335.785156 633.75 337.523438 635.273438 337.667969 637.339844 C 337.808594 639.410156 336.246094 641.203125 334.175781 641.34375 L 182.820312 651.8125 C 182.730469 651.820312 182.640625 651.824219 182.554688 651.824219 Z M 182.554688 651.824219 " fill-opacity="1" fill-rule="nonzero"/><path fill="#04182d" d="M 182.554688 675.828125 C 180.597656 675.828125 178.945312 674.316406 178.808594 672.335938 C 178.664062 670.269531 180.226562 668.476562 182.296875 668.332031 L 333.65625 657.863281 C 335.785156 657.722656 337.523438 659.28125 337.667969 661.34375 C 337.808594 663.414062 336.246094 665.207031 334.175781 665.347656 L 182.820312 675.820312 C 182.730469 675.824219 182.640625 675.828125 182.554688 675.828125 Z M 182.554688 675.828125 " fill-opacity="1" fill-rule="nonzero"/><path stroke-linecap="butt" transform="matrix(3.586264, 0, 0, 3.586264, 92.847497, 608.327194)" fill="none" stroke-linejoin="miter" d="M 26.166507 44.476601 C 15.119582 44.476601 9.760593 51.330007 9.760593 61.793107 L 9.760593 133.177673 C 9.760593 143.640772 15.119582 150.495268 26.166507 150.495268 C 37.249375 150.495268 42.608364 143.640772 42.608364 133.177673 L 42.608364 119.72465 L 60.837641 119.72465 C 68.894641 119.72465 75.457224 113.453979 75.457224 105.396979 C 75.457224 97.339978 68.894641 90.777395 60.837641 90.777395 L 42.608364 90.777395 L 42.608364 73.423856 L 75.748048 73.423856 C 83.805048 73.423856 90.404665 67.153185 90.404665 59.096185 C 90.404665 51.039184 83.805048 44.476601 75.748048 44.476601 Z M 26.166507 44.476601 " stroke="#000000" stroke-width="2.706624" stroke-opacity="1" stroke-miterlimit="4"/><g fill="#ffde59" fill-opacity="1"><g transform="translate(1114.289403, 1205.524942)"><g><path d="M -327.3125 -64.539062 C -327.3125 -34.113281 -307.949219 -18.441406 -278.445312 -18.441406 L -44.257812 -18.441406 C -15.675781 -18.441406 4.609375 -34.113281 4.609375 -64.539062 C 4.609375 -94.964844 -15.675781 -110.640625 -44.257812 -110.640625 L -278.445312 -110.640625 C -307.949219 -110.640625 -327.3125 -94.964844 -327.3125 -64.539062 Z M -327.3125 -64.539062 "/></g></g></g><g fill="#5ce1e6" fill-opacity="1"><g transform="translate(383.974848, 1163.209896)"><g><path d="M 64.539062 -327.3125 C 34.113281 -327.3125 18.441406 -307.949219 18.441406 -278.445312 L 18.441406 -44.257812 C 18.441406 -15.675781 34.113281 4.609375 64.539062 4.609375 C 94.964844 4.609375 110.640625 -15.675781 110.640625 -44.257812 L 110.640625 -278.445312 C 110.640625 -307.949219 94.964844 -327.3125 64.539062 -327.3125 Z M 64.539062 -327.3125 "/></g></g></g><g fill="#ff8bd2" fill-opacity="1"><g transform="translate(1403.896454, 1031.659464)"><g><path d="M -82.636719 -323.21875 C -110.097656 -310.121094 -115.910156 -285.898438 -103.210938 -259.265625 L -2.40625 -47.882812 C 9.898438 -22.085938 32.777344 -10.523438 60.238281 -23.621094 C 87.703125 -36.71875 93.117188 -61.773438 80.816406 -87.570312 L -19.988281 -298.953125 C -32.691406 -325.585938 -55.171875 -336.316406 -82.636719 -323.21875 Z M -82.636719 -323.21875 "/></g></g></g><path stroke-linecap="butt" transform="matrix(3.586264, 0, 0, 3.586264, 401.782349, 608.327194)" fill="none" stroke-linejoin="miter" d="M 44.80607 42.981094 C 19.395531 42.981094 7.473958 56.398173 7.473958 75.829955 C 7.473958 93.730285 15.822871 103.318736 31.353047 107.475221 L 47.795994 111.667649 C 54.358577 113.453979 55.26917 116.734726 55.26917 119.140825 C 55.26917 122.130749 53.154983 125.120672 47.176225 125.120672 C 38.827312 125.120672 31.64496 123.297309 23.296047 117.93832 C 20.889948 116.443903 18.520883 116.15199 16.442641 116.15199 C 8.968376 116.15199 3.572353 121.219067 3.572353 128.693332 C 3.572353 131.682166 4.775947 134.964003 7.473958 137.662014 C 16.442641 146.593662 31.062224 150.495268 47.795994 150.495268 C 75.248832 150.495268 88.11803 136.166507 88.11803 117.646408 C 88.11803 99.126308 80.643765 90.449538 64.201907 85.965197 L 47.795994 81.808713 C 41.817236 80.314296 40.321729 77.324372 40.321729 74.335537 C 40.321729 70.761789 43.311653 68.35569 47.795994 68.35569 C 53.774752 68.35569 58.223149 70.142019 64.201907 74.918273 C 66.608006 76.741636 69.306018 77.324372 71.675083 77.324372 C 80.023996 77.324372 84.216424 72.257295 84.216424 64.78303 C 84.216424 61.793107 83.341776 58.804272 81.22759 56.398173 C 74.665007 48.631996 59.425654 42.981094 44.80607 42.981094 Z M 107.801422 44.476601 C 99.744422 44.476601 93.181839 51.039184 93.181839 59.096185 C 93.181839 67.153185 99.744422 73.751713 107.801422 73.751713 L 120.962533 73.751713 L 120.962533 133.177673 C 120.962533 143.640772 126.030699 150.495268 137.077623 150.495268 C 148.123458 150.495268 153.811393 143.640772 153.811393 133.177673 L 153.811393 73.751713 L 166.644647 73.751713 C 174.701648 73.751713 181.300175 67.153185 181.300175 59.096185 C 181.300175 51.039184 174.701648 44.476601 166.644647 44.476601 Z M 107.801422 44.476601 " stroke="#000000" stroke-width="2.706624" stroke-opacity="1" stroke-miterlimit="4"/><path stroke-linecap="butt" transform="matrix(1.403997, 0, 0, 1.403997, 979.294164, 861.045938)" fill="none" stroke-linejoin="miter" d="M 44.807055 72.839599 C 18.520492 72.839599 3.863674 89.282613 3.863674 112.578273 C 3.863674 134.051568 17.318566 150.494581 47.174738 150.494581 C 58.5513 150.494581 68.976337 147.795813 76.16007 143.021496 C 78.530535 141.527436 80.645034 138.536532 80.645034 134.672007 C 80.645034 128.400847 76.452205 123.626531 70.181045 123.626531 C 67.190142 123.626531 65.403946 124.208018 63.325616 125.704861 C 60.62963 127.491056 54.94274 128.692982 51.367567 128.692982 C 43.602347 128.692982 38.062916 126.141672 35.400316 120.635627 L 77.654131 120.635627 C 83.012717 120.635627 86.00362 117.027067 86.00362 112.578273 C 86.00362 89.282613 71.090836 72.839599 44.807055 72.839599 Z M 54.94274 102.698553 L 34.343067 102.698553 C 35.837127 96.866987 39.409518 94.641199 44.807055 94.641199 C 49.873507 94.641199 53.301221 97.192509 54.94274 102.698553 Z M 134.403393 72.839599 C 109.903025 72.839599 93.170659 88.954309 93.170659 111.668481 C 93.170659 134.379872 109.903025 150.494581 134.403393 150.494581 C 144.246943 150.494581 151.720028 148.087947 158.903761 143.641935 C 163.349774 140.943166 165.756408 137.370775 165.756408 132.265373 C 165.756408 124.500153 160.397822 119.141567 152.632602 119.141567 C 149.933833 119.141567 148.147638 120.015189 146.325273 120.927762 C 143.954808 122.129688 139.761979 124.500153 134.403393 124.500153 C 127.840099 124.500153 123.357917 119.725836 123.357917 111.668481 C 123.357917 103.611127 127.840099 99.126163 134.403393 99.126163 C 139.761979 99.126163 143.954808 101.204493 146.325273 102.406419 C 148.147638 103.318992 149.933833 104.192614 152.632602 104.192614 C 160.397822 104.192614 165.756408 98.834028 165.756408 91.068808 C 165.756408 85.966188 163.349774 82.391015 158.903761 79.695028 C 151.720028 75.246233 144.246943 72.839599 134.403393 72.839599 Z M 190.228953 42.980645 C 180.385403 42.980645 175.31617 49.251805 175.31617 58.80322 L 175.31617 134.672007 C 175.31617 143.931287 180.385403 150.494581 190.228953 150.494581 C 200.108673 150.494581 205.175124 143.931287 205.175124 134.672007 L 205.175124 106.599248 C 205.175124 101.204493 208.166027 98.213589 212.650991 98.213589 C 217.133173 98.213589 220.124077 101.204493 220.124077 106.599248 L 220.124077 134.672007 C 220.124077 143.931287 225.190528 150.494581 235.034078 150.494581 C 244.913797 150.494581 249.983031 143.931287 249.983031 134.672007 L 249.983031 99.710432 C 249.983031 81.809527 241.013103 72.839599 224.609041 72.839599 C 216.075924 72.839599 209.660088 76.122637 205.175124 81.517393 L 205.175124 58.80322 C 205.175124 49.251805 200.108673 42.980645 190.228953 42.980645 Z M 275.050975 72.839599 C 266.412133 72.839599 261.927169 78.198185 261.927169 86.583844 L 261.927169 134.672007 C 261.927169 143.931287 266.996402 150.494581 276.839952 150.494581 C 286.719672 150.494581 291.786123 143.931287 291.786123 134.672007 L 291.786123 107.183517 C 291.786123 101.824931 294.777026 98.834028 299.259208 98.834028 C 303.744172 98.834028 306.735076 101.824931 306.735076 107.183517 L 306.735076 134.672007 C 306.735076 143.931287 311.801527 150.494581 321.645077 150.494581 C 331.524796 150.494581 336.591247 143.931287 336.591247 134.672007 L 336.591247 99.710432 C 336.591247 81.809527 327.624102 72.839599 311.217257 72.839599 C 300.135612 72.839599 292.370392 78.381813 288.213732 87.168113 L 288.213732 86.583844 C 288.213732 78.198185 283.728768 72.839599 275.050975 72.839599 Z M 387.364268 98.834028 C 394.511831 98.834028 398.704661 103.903261 398.704661 111.668481 C 398.704661 119.433701 394.511831 124.500153 387.364268 124.500153 C 380.183317 124.500153 376.026657 119.433701 376.026657 111.668481 C 376.026657 103.903261 380.183317 98.834028 387.364268 98.834028 Z M 387.364268 72.839599 C 361.080486 72.839599 346.131534 89.282613 346.131534 111.668481 C 346.131534 134.051568 361.080486 150.494581 387.364268 150.494581 C 413.650831 150.494581 428.563615 134.051568 428.563615 111.668481 C 428.563615 89.282613 413.650831 72.839599 387.364268 72.839599 Z M 387.364268 72.839599 " stroke="#000000" stroke-width="2.706624" stroke-opacity="1" stroke-miterlimit="4"/><g fill="#000000" fill-opacity="1"><g transform="translate(298.103161, 1295.890791)"><g><path d="M 42.15625 -70.25 L 42.15625 -53.390625 L 28.203125 -53.390625 C 26.128906 -53.390625 24.640625 -52.953125 23.734375 -52.078125 C 22.828125 -51.210938 22.375 -49.910156 22.375 -48.171875 L 22.375 -41.34375 L 42.15625 -41.34375 L 42.15625 -25.09375 L 22.375 -25.09375 L 22.375 0 L 4.921875 0 L 4.921875 -49.171875 C 4.921875 -52.117188 5.421875 -54.878906 6.421875 -57.453125 C 7.421875 -60.023438 8.804688 -62.265625 10.578125 -64.171875 C 12.359375 -66.085938 14.503906 -67.578125 17.015625 -68.640625 C 19.523438 -69.710938 22.285156 -70.25 25.296875 -70.25 Z M 42.15625 -70.25 "/></g></g></g><g fill="#000000" fill-opacity="1"><g transform="translate(342.664181, 1295.890791)"><g><path d="M 19.5625 -48.78125 L 19.5625 -20.578125 C 19.5625 -18.703125 20.03125 -17.144531 20.96875 -15.90625 C 21.90625 -14.664062 23.28125 -14.046875 25.09375 -14.046875 C 26.894531 -14.046875 28.265625 -14.664062 29.203125 -15.90625 C 30.140625 -17.144531 30.609375 -18.703125 30.609375 -20.578125 L 30.609375 -48.78125 L 46.0625 -48.78125 L 46.0625 -20.46875 C 46.0625 -17.320312 45.59375 -14.425781 44.65625 -11.78125 C 43.71875 -9.144531 42.363281 -6.875 40.59375 -4.96875 C 38.820312 -3.0625 36.628906 -1.554688 34.015625 -0.453125 C 31.410156 0.648438 28.4375 1.203125 25.09375 1.203125 C 21.75 1.203125 18.769531 0.671875 16.15625 -0.390625 C 13.550781 -1.460938 11.359375 -2.96875 9.578125 -4.90625 C 7.804688 -6.851562 6.453125 -9.144531 5.515625 -11.78125 C 4.578125 -14.425781 4.109375 -17.320312 4.109375 -20.46875 L 4.109375 -48.78125 Z M 19.5625 -48.78125 "/></g></g></g><g fill="#000000" fill-opacity="1"><g transform="translate(392.845499, 1295.890791)"><g><path d="M 19.375 -60.8125 L 19.375 -49.171875 L 30.703125 -49.171875 L 30.703125 -34.53125 L 19.265625 -34.53125 L 19.265625 -21.484375 C 19.265625 -18.929688 19.816406 -17.15625 20.921875 -16.15625 C 22.023438 -15.15625 24.21875 -14.65625 27.5 -14.65625 C 28.03125 -14.65625 28.5625 -14.671875 29.09375 -14.703125 C 29.632812 -14.734375 30.238281 -14.785156 30.90625 -14.859375 L 30.90625 0 L 21.484375 0 C 18.734375 0 16.269531 -0.414062 14.09375 -1.25 C 11.925781 -2.09375 10.085938 -3.28125 8.578125 -4.8125 C 7.078125 -6.351562 5.90625 -8.191406 5.0625 -10.328125 C 4.226562 -12.472656 3.8125 -14.851562 3.8125 -17.46875 L 3.8125 -60.8125 Z M 19.375 -60.8125 "/></g></g></g><g fill="#000000" fill-opacity="1"><g transform="translate(426.266232, 1295.890791)"><g><path d="M 19.5625 -48.78125 L 19.5625 -20.578125 C 19.5625 -18.703125 20.03125 -17.144531 20.96875 -15.90625 C 21.90625 -14.664062 23.28125 -14.046875 25.09375 -14.046875 C 26.894531 -14.046875 28.265625 -14.664062 29.203125 -15.90625 C 30.140625 -17.144531 30.609375 -18.703125 30.609375 -20.578125 L 30.609375 -48.78125 L 46.0625 -48.78125 L 46.0625 -20.46875 C 46.0625 -17.320312 45.59375 -14.425781 44.65625 -11.78125 C 43.71875 -9.144531 42.363281 -6.875 40.59375 -4.96875 C 38.820312 -3.0625 36.628906 -1.554688 34.015625 -0.453125 C 31.410156 0.648438 28.4375 1.203125 25.09375 1.203125 C 21.75 1.203125 18.769531 0.671875 16.15625 -0.390625 C 13.550781 -1.460938 11.359375 -2.96875 9.578125 -4.90625 C 7.804688 -6.851562 6.453125 -9.144531 5.515625 -11.78125 C 4.578125 -14.425781 4.109375 -17.320312 4.109375 -20.46875 L 4.109375 -48.78125 Z M 19.5625 -48.78125 "/></g></g></g><g fill="#000000" fill-opacity="1"><g transform="translate(476.44755, 1295.890791)"><g><path d="M 17.65625 -48.78125 L 17.65625 -40.640625 L 17.859375 -40.640625 C 18.867188 -43.585938 20.390625 -45.679688 22.421875 -46.921875 C 24.460938 -48.160156 27.628906 -48.78125 31.921875 -48.78125 L 31.921875 -34.125 C 29.304688 -33.925781 27.210938 -33.675781 25.640625 -33.375 C 24.066406 -33.070312 22.84375 -32.550781 21.96875 -31.8125 C 21.101562 -31.070312 20.519531 -30.035156 20.21875 -28.703125 C 19.914062 -27.367188 19.765625 -25.597656 19.765625 -23.390625 L 19.765625 0 L 3.71875 0 L 3.71875 -48.78125 Z M 17.65625 -48.78125 "/></g></g></g><g fill="#000000" fill-opacity="1"><g transform="translate(509.868283, 1295.890791)"><g><path d="M 27.296875 -17.765625 L 21.171875 -27.390625 L 34.328125 -36.03125 C 33.179688 -36.695312 32.109375 -37.144531 31.109375 -37.375 C 30.109375 -37.613281 29.101562 -37.734375 28.09375 -37.734375 C 26.5625 -37.734375 25.175781 -37.378906 23.9375 -36.671875 C 22.695312 -35.972656 21.625 -35.035156 20.71875 -33.859375 C 19.820312 -32.691406 19.117188 -31.351562 18.609375 -29.84375 C 18.109375 -28.34375 17.859375 -26.789062 17.859375 -25.1875 C 17.859375 -23.445312 18.160156 -21.84375 18.765625 -20.375 C 19.367188 -18.90625 20.171875 -17.597656 21.171875 -16.453125 C 22.179688 -15.316406 23.335938 -14.429688 24.640625 -13.796875 C 25.941406 -13.160156 27.296875 -12.84375 28.703125 -12.84375 C 31.515625 -12.84375 34.257812 -13.863281 36.9375 -15.90625 C 39.613281 -17.945312 41.648438 -20.570312 43.046875 -23.78125 L 54.59375 -17.859375 C 53.394531 -14.984375 51.859375 -12.375 49.984375 -10.03125 C 48.109375 -7.6875 46 -5.675781 43.65625 -4 C 41.3125 -2.332031 38.785156 -1.046875 36.078125 -0.140625 C 33.367188 0.753906 30.539062 1.203125 27.59375 1.203125 C 24.1875 1.203125 20.957031 0.519531 17.90625 -0.84375 C 14.863281 -2.21875 12.1875 -4.09375 9.875 -6.46875 C 7.570312 -8.84375 5.75 -11.566406 4.40625 -14.640625 C 3.070312 -17.722656 2.40625 -20.972656 2.40625 -24.390625 C 2.40625 -27.796875 3.070312 -31.035156 4.40625 -34.109375 C 5.75 -37.191406 7.570312 -39.90625 9.875 -42.25 C 12.1875 -44.59375 14.863281 -46.46875 17.90625 -47.875 C 20.957031 -49.28125 24.1875 -49.984375 27.59375 -49.984375 C 33.21875 -49.984375 37.953125 -48.578125 41.796875 -45.765625 C 45.648438 -42.953125 48.878906 -39.171875 51.484375 -34.421875 Z M 27.296875 -17.765625 "/></g></g></g><g fill="#000000" fill-opacity="1"><g transform="translate(565.669898, 1295.890791)"><g/></g></g><g fill="#000000" fill-opacity="1"><g transform="translate(593.570706, 1295.890791)"><g><path d="M 42.546875 -70.25 L 42.546875 -54 L 24.6875 -54 C 23.6875 -54 22.800781 -53.78125 22.03125 -53.34375 C 21.257812 -52.90625 20.875 -52.148438 20.875 -51.078125 C 20.875 -50.140625 21.539062 -49.066406 22.875 -47.859375 C 24.21875 -46.660156 26.296875 -45.160156 29.109375 -43.359375 C 31.785156 -41.617188 34.226562 -39.894531 36.4375 -38.1875 C 38.644531 -36.476562 40.53125 -34.738281 42.09375 -32.96875 C 43.664062 -31.195312 44.882812 -29.320312 45.75 -27.34375 C 46.625 -25.375 47.0625 -23.25 47.0625 -20.96875 C 47.0625 -17.425781 46.660156 -14.453125 45.859375 -12.046875 C 45.054688 -9.640625 43.785156 -7.597656 42.046875 -5.921875 C 39.910156 -3.773438 37.117188 -2.25 33.671875 -1.34375 C 30.222656 -0.445312 26.359375 0 22.078125 0 L 3.515625 0 L 3.515625 -16.265625 L 21.984375 -16.265625 C 23.722656 -16.265625 25.191406 -16.5625 26.390625 -17.15625 C 27.597656 -17.757812 28.203125 -18.734375 28.203125 -20.078125 C 28.203125 -21.347656 27.484375 -22.648438 26.046875 -23.984375 C 24.609375 -25.328125 22.445312 -26.96875 19.5625 -28.90625 C 16.820312 -30.707031 14.414062 -32.460938 12.34375 -34.171875 C 10.269531 -35.878906 8.546875 -37.582031 7.171875 -39.28125 C 5.804688 -40.988281 4.769531 -42.742188 4.0625 -44.546875 C 3.363281 -46.359375 3.015625 -48.300781 3.015625 -50.375 C 3.015625 -53.65625 3.53125 -56.53125 4.5625 -59 C 5.601562 -61.476562 7.054688 -63.554688 8.921875 -65.234375 C 10.796875 -66.910156 13.019531 -68.164062 15.59375 -69 C 18.175781 -69.832031 21.007812 -70.25 24.09375 -70.25 Z M 42.546875 -70.25 "/></g></g></g><g fill="#000000" fill-opacity="1"><g transform="translate(643.752024, 1295.890791)"><g><path d="M 53.09375 -24.390625 C 53.09375 -20.972656 52.421875 -17.722656 51.078125 -14.640625 C 49.742188 -11.566406 47.921875 -8.84375 45.609375 -6.46875 C 43.304688 -4.09375 40.628906 -2.21875 37.578125 -0.84375 C 34.535156 0.519531 31.3125 1.203125 27.90625 1.203125 C 24.488281 1.203125 21.257812 0.519531 18.21875 -0.84375 C 15.175781 -2.21875 12.5 -4.09375 10.1875 -6.46875 C 7.875 -8.84375 6.046875 -11.566406 4.703125 -14.640625 C 3.367188 -17.722656 2.703125 -20.972656 2.703125 -24.390625 C 2.703125 -27.796875 3.367188 -31.035156 4.703125 -34.109375 C 6.046875 -37.191406 7.875 -39.90625 10.1875 -42.25 C 12.5 -44.59375 15.175781 -46.46875 18.21875 -47.875 C 21.257812 -49.28125 24.488281 -49.984375 27.90625 -49.984375 C 31.382812 -49.984375 34.644531 -49.28125 37.6875 -47.875 C 40.726562 -46.46875 43.382812 -44.578125 45.65625 -42.203125 C 47.9375 -39.828125 49.742188 -37.097656 51.078125 -34.015625 C 52.421875 -30.941406 53.09375 -27.734375 53.09375 -24.390625 Z M 27.90625 -14.046875 C 29.300781 -14.046875 30.601562 -14.328125 31.8125 -14.890625 C 33.019531 -15.460938 34.054688 -16.234375 34.921875 -17.203125 C 35.796875 -18.179688 36.46875 -19.285156 36.9375 -20.515625 C 37.40625 -21.753906 37.640625 -23.046875 37.640625 -24.390625 C 37.640625 -25.722656 37.40625 -27.007812 36.9375 -28.25 C 36.46875 -29.488281 35.8125 -30.59375 34.96875 -31.5625 C 34.132812 -32.53125 33.097656 -33.296875 31.859375 -33.859375 C 30.617188 -34.429688 29.265625 -34.71875 27.796875 -34.71875 C 26.390625 -34.71875 25.097656 -34.429688 23.921875 -33.859375 C 22.753906 -33.296875 21.734375 -32.53125 20.859375 -31.5625 C 19.992188 -30.59375 19.328125 -29.488281 18.859375 -28.25 C 18.398438 -27.007812 18.171875 -25.722656 18.171875 -24.390625 C 18.171875 -23.046875 18.398438 -21.753906 18.859375 -20.515625 C 19.328125 -19.285156 19.992188 -18.179688 20.859375 -17.203125 C 21.734375 -16.234375 22.773438 -15.460938 23.984375 -14.890625 C 25.191406 -14.328125 26.5 -14.046875 27.90625 -14.046875 Z M 27.90625 -14.046875 "/></g></g></g><g fill="#000000" fill-opacity="1"><g transform="translate(699.553639, 1295.890791)"><g><path d="M 21.984375 -70.25 L 21.984375 0 L 5.921875 0 L 5.921875 -70.25 Z M 21.984375 -70.25 "/></g></g></g><g fill="#000000" fill-opacity="1"><g transform="translate(727.454446, 1295.890791)"><g><path d="M 19.5625 -48.78125 L 19.5625 -20.578125 C 19.5625 -18.703125 20.03125 -17.144531 20.96875 -15.90625 C 21.90625 -14.664062 23.28125 -14.046875 25.09375 -14.046875 C 26.894531 -14.046875 28.265625 -14.664062 29.203125 -15.90625 C 30.140625 -17.144531 30.609375 -18.703125 30.609375 -20.578125 L 30.609375 -48.78125 L 46.0625 -48.78125 L 46.0625 -20.46875 C 46.0625 -17.320312 45.59375 -14.425781 44.65625 -11.78125 C 43.71875 -9.144531 42.363281 -6.875 40.59375 -4.96875 C 38.820312 -3.0625 36.628906 -1.554688 34.015625 -0.453125 C 31.410156 0.648438 28.4375 1.203125 25.09375 1.203125 C 21.75 1.203125 18.769531 0.671875 16.15625 -0.390625 C 13.550781 -1.460938 11.359375 -2.96875 9.578125 -4.90625 C 7.804688 -6.851562 6.453125 -9.144531 5.515625 -11.78125 C 4.578125 -14.425781 4.109375 -17.320312 4.109375 -20.46875 L 4.109375 -48.78125 Z M 19.5625 -48.78125 "/></g></g></g><g fill="#000000" fill-opacity="1"><g transform="translate(777.635764, 1295.890791)"><g><path d="M 19.375 -60.8125 L 19.375 -49.171875 L 30.703125 -49.171875 L 30.703125 -34.53125 L 19.265625 -34.53125 L 19.265625 -21.484375 C 19.265625 -18.929688 19.816406 -17.15625 20.921875 -16.15625 C 22.023438 -15.15625 24.21875 -14.65625 27.5 -14.65625 C 28.03125 -14.65625 28.5625 -14.671875 29.09375 -14.703125 C 29.632812 -14.734375 30.238281 -14.785156 30.90625 -14.859375 L 30.90625 0 L 21.484375 0 C 18.734375 0 16.269531 -0.414062 14.09375 -1.25 C 11.925781 -2.09375 10.085938 -3.28125 8.578125 -4.8125 C 7.078125 -6.351562 5.90625 -8.191406 5.0625 -10.328125 C 4.226562 -12.472656 3.8125 -14.851562 3.8125 -17.46875 L 3.8125 -60.8125 Z M 19.375 -60.8125 "/></g></g></g><g fill="#000000" fill-opacity="1"><g transform="translate(811.056498, 1295.890791)"><g><path d="M 23.078125 -62.328125 C 23.078125 -59.710938 22.191406 -57.535156 20.421875 -55.796875 C 18.648438 -54.054688 16.492188 -53.1875 13.953125 -53.1875 C 11.410156 -53.1875 9.25 -54.054688 7.46875 -55.796875 C 5.695312 -57.535156 4.8125 -59.710938 4.8125 -62.328125 C 4.8125 -64.929688 5.695312 -67.101562 7.46875 -68.84375 C 9.25 -70.582031 11.410156 -71.453125 13.953125 -71.453125 C 16.492188 -71.453125 18.648438 -70.582031 20.421875 -68.84375 C 22.191406 -67.101562 23.078125 -64.929688 23.078125 -62.328125 Z M 21.984375 -48.78125 L 21.984375 0 L 5.921875 0 L 5.921875 -48.78125 Z M 21.984375 -48.78125 "/></g></g></g><g fill="#000000" fill-opacity="1"><g transform="translate(838.957305, 1295.890791)"><g><path d="M 53.09375 -24.390625 C 53.09375 -20.972656 52.421875 -17.722656 51.078125 -14.640625 C 49.742188 -11.566406 47.921875 -8.84375 45.609375 -6.46875 C 43.304688 -4.09375 40.628906 -2.21875 37.578125 -0.84375 C 34.535156 0.519531 31.3125 1.203125 27.90625 1.203125 C 24.488281 1.203125 21.257812 0.519531 18.21875 -0.84375 C 15.175781 -2.21875 12.5 -4.09375 10.1875 -6.46875 C 7.875 -8.84375 6.046875 -11.566406 4.703125 -14.640625 C 3.367188 -17.722656 2.703125 -20.972656 2.703125 -24.390625 C 2.703125 -27.796875 3.367188 -31.035156 4.703125 -34.109375 C 6.046875 -37.191406 7.875 -39.90625 10.1875 -42.25 C 12.5 -44.59375 15.175781 -46.46875 18.21875 -47.875 C 21.257812 -49.28125 24.488281 -49.984375 27.90625 -49.984375 C 31.382812 -49.984375 34.644531 -49.28125 37.6875 -47.875 C 40.726562 -46.46875 43.382812 -44.578125 45.65625 -42.203125 C 47.9375 -39.828125 49.742188 -37.097656 51.078125 -34.015625 C 52.421875 -30.941406 53.09375 -27.734375 53.09375 -24.390625 Z M 27.90625 -14.046875 C 29.300781 -14.046875 30.601562 -14.328125 31.8125 -14.890625 C 33.019531 -15.460938 34.054688 -16.234375 34.921875 -17.203125 C 35.796875 -18.179688 36.46875 -19.285156 36.9375 -20.515625 C 37.40625 -21.753906 37.640625 -23.046875 37.640625 -24.390625 C 37.640625 -25.722656 37.40625 -27.007812 36.9375 -28.25 C 36.46875 -29.488281 35.8125 -30.59375 34.96875 -31.5625 C 34.132812 -32.53125 33.097656 -33.296875 31.859375 -33.859375 C 30.617188 -34.429688 29.265625 -34.71875 27.796875 -34.71875 C 26.390625 -34.71875 25.097656 -34.429688 23.921875 -33.859375 C 22.753906 -33.296875 21.734375 -32.53125 20.859375 -31.5625 C 19.992188 -30.59375 19.328125 -29.488281 18.859375 -28.25 C 18.398438 -27.007812 18.171875 -25.722656 18.171875 -24.390625 C 18.171875 -23.046875 18.398438 -21.753906 18.859375 -20.515625 C 19.328125 -19.285156 19.992188 -18.179688 20.859375 -17.203125 C 21.734375 -16.234375 22.773438 -15.460938 23.984375 -14.890625 C 25.191406 -14.328125 26.5 -14.046875 27.90625 -14.046875 Z M 27.90625 -14.046875 "/></g></g></g><g fill="#000000" fill-opacity="1"><g transform="translate(894.75892, 1295.890791)"><g><path d="M 46.0625 0 L 30.609375 0 L 30.609375 -28.203125 C 30.609375 -30.078125 30.140625 -31.628906 29.203125 -32.859375 C 28.265625 -34.097656 26.894531 -34.71875 25.09375 -34.71875 C 23.28125 -34.71875 21.90625 -34.097656 20.96875 -32.859375 C 20.03125 -31.628906 19.5625 -30.078125 19.5625 -28.203125 L 19.5625 0 L 4.109375 0 L 4.109375 -28.296875 C 4.109375 -31.441406 4.578125 -34.335938 5.515625 -36.984375 C 6.453125 -39.628906 7.820312 -41.921875 9.625 -43.859375 C 11.4375 -45.796875 13.628906 -47.300781 16.203125 -48.375 C 18.785156 -49.445312 21.75 -49.984375 25.09375 -49.984375 C 28.4375 -49.984375 31.410156 -49.429688 34.015625 -48.328125 C 36.628906 -47.222656 38.820312 -45.71875 40.59375 -43.8125 C 42.363281 -41.90625 43.71875 -39.613281 44.65625 -36.9375 C 45.59375 -34.257812 46.0625 -31.378906 46.0625 -28.296875 Z M 46.0625 0 "/></g></g></g><g fill="#000000" fill-opacity="1"><g transform="translate(944.940238, 1295.890791)"><g><path d="M 33.921875 -48.78125 L 33.921875 -35.734375 L 21.171875 -35.734375 C 20.441406 -35.734375 19.738281 -35.515625 19.0625 -35.078125 C 18.394531 -34.640625 18.0625 -34.085938 18.0625 -33.421875 C 18.0625 -32.347656 20.070312 -31.007812 24.09375 -29.40625 C 28.101562 -27.800781 31.226562 -25.894531 33.46875 -23.6875 C 35.707031 -21.476562 36.828125 -18.703125 36.828125 -15.359375 C 36.828125 -10.273438 35.351562 -6.441406 32.40625 -3.859375 C 29.46875 -1.285156 25.488281 0 20.46875 0 L 2.109375 0 L 2.109375 -13.65625 L 17.765625 -13.65625 C 18.503906 -13.65625 19.125 -13.835938 19.625 -14.203125 C 20.125 -14.566406 20.375 -15.117188 20.375 -15.859375 C 20.375 -16.722656 19.867188 -17.390625 18.859375 -17.859375 C 17.859375 -18.328125 16.390625 -18.960938 14.453125 -19.765625 C 12.578125 -20.566406 10.898438 -21.398438 9.421875 -22.265625 C 7.953125 -23.140625 6.71875 -24.160156 5.71875 -25.328125 C 4.71875 -26.503906 3.945312 -27.863281 3.40625 -29.40625 C 2.875 -30.945312 2.609375 -32.785156 2.609375 -34.921875 C 2.609375 -37.066406 3.023438 -38.988281 3.859375 -40.6875 C 4.703125 -42.394531 5.84375 -43.851562 7.28125 -45.0625 C 8.71875 -46.269531 10.351562 -47.191406 12.1875 -47.828125 C 14.03125 -48.460938 15.957031 -48.78125 17.96875 -48.78125 Z M 33.921875 -48.78125 "/></g></g></g><g fill="#000000" fill-opacity="1"><g transform="translate(983.981269, 1295.890791)"><g/></g></g><g fill="#000000" fill-opacity="1"><g transform="translate(1011.882076, 1295.890791)"><g><path d="M 43.859375 -70.25 L 43.859375 -53.390625 L 31.015625 -53.390625 L 31.015625 0 L 13.546875 0 L 13.546875 -53.390625 L 0.703125 -53.390625 L 0.703125 -70.25 Z M 43.859375 -70.25 "/></g></g></g><g fill="#000000" fill-opacity="1"><g transform="translate(1056.443096, 1295.890791)"><g><path d="M 27.296875 -17.765625 L 21.171875 -27.390625 L 34.328125 -36.03125 C 33.179688 -36.695312 32.109375 -37.144531 31.109375 -37.375 C 30.109375 -37.613281 29.101562 -37.734375 28.09375 -37.734375 C 26.5625 -37.734375 25.175781 -37.378906 23.9375 -36.671875 C 22.695312 -35.972656 21.625 -35.035156 20.71875 -33.859375 C 19.820312 -32.691406 19.117188 -31.351562 18.609375 -29.84375 C 18.109375 -28.34375 17.859375 -26.789062 17.859375 -25.1875 C 17.859375 -23.445312 18.160156 -21.84375 18.765625 -20.375 C 19.367188 -18.90625 20.171875 -17.597656 21.171875 -16.453125 C 22.179688 -15.316406 23.335938 -14.429688 24.640625 -13.796875 C 25.941406 -13.160156 27.296875 -12.84375 28.703125 -12.84375 C 31.515625 -12.84375 34.257812 -13.863281 36.9375 -15.90625 C 39.613281 -17.945312 41.648438 -20.570312 43.046875 -23.78125 L 54.59375 -17.859375 C 53.394531 -14.984375 51.859375 -12.375 49.984375 -10.03125 C 48.109375 -7.6875 46 -5.675781 43.65625 -4 C 41.3125 -2.332031 38.785156 -1.046875 36.078125 -0.140625 C 33.367188 0.753906 30.539062 1.203125 27.59375 1.203125 C 24.1875 1.203125 20.957031 0.519531 17.90625 -0.84375 C 14.863281 -2.21875 12.1875 -4.09375 9.875 -6.46875 C 7.570312 -8.84375 5.75 -11.566406 4.40625 -14.640625 C 3.070312 -17.722656 2.40625 -20.972656 2.40625 -24.390625 C 2.40625 -27.796875 3.070312 -31.035156 4.40625 -34.109375 C 5.75 -37.191406 7.570312 -39.90625 9.875 -42.25 C 12.1875 -44.59375 14.863281 -46.46875 17.90625 -47.875 C 20.957031 -49.28125 24.1875 -49.984375 27.59375 -49.984375 C 33.21875 -49.984375 37.953125 -48.578125 41.796875 -45.765625 C 45.648438 -42.953125 48.878906 -39.171875 51.484375 -34.421875 Z M 27.296875 -17.765625 "/></g></g></g><g fill="#000000" fill-opacity="1"><g transform="translate(1112.244711, 1295.890791)"><g><path d="M 35.125 -48.78125 L 35.125 -34.21875 L 28 -34.21875 C 24.925781 -34.21875 22.519531 -33.347656 20.78125 -31.609375 C 19.039062 -29.867188 18.171875 -27.460938 18.171875 -24.390625 C 18.171875 -21.304688 19.039062 -18.878906 20.78125 -17.109375 C 22.519531 -15.335938 24.925781 -14.453125 28 -14.453125 L 35.125 -14.453125 L 35.125 0 L 25.1875 0 C 22.175781 0 19.265625 -0.582031 16.453125 -1.75 C 13.648438 -2.925781 11.191406 -4.582031 9.078125 -6.71875 C 6.972656 -8.863281 5.285156 -11.441406 4.015625 -14.453125 C 2.742188 -17.460938 2.109375 -20.773438 2.109375 -24.390625 C 2.109375 -28.066406 2.757812 -31.410156 4.0625 -34.421875 C 5.363281 -37.429688 7.082031 -39.988281 9.21875 -42.09375 C 11.363281 -44.207031 13.828125 -45.847656 16.609375 -47.015625 C 19.390625 -48.191406 22.25 -48.78125 25.1875 -48.78125 Z M 35.125 -48.78125 "/></g></g></g><g fill="#000000" fill-opacity="1"><g transform="translate(1151.285742, 1295.890791)"><g><path d="M 19.5625 -70.25 L 19.5625 -47.375 C 21.039062 -48.101562 22.5 -48.71875 23.9375 -49.21875 C 25.375 -49.726562 27.03125 -49.984375 28.90625 -49.984375 C 31.71875 -49.984375 34.226562 -49.476562 36.4375 -48.46875 C 38.644531 -47.46875 40.5 -46.113281 42 -44.40625 C 43.507812 -42.695312 44.664062 -40.722656 45.46875 -38.484375 C 46.269531 -36.242188 46.671875 -33.882812 46.671875 -31.40625 L 46.671875 0 L 30.609375 0 L 30.609375 -28.609375 C 30.609375 -30.546875 30.085938 -32.015625 29.046875 -33.015625 C 28.015625 -34.023438 26.695312 -34.53125 25.09375 -34.53125 C 23.488281 -34.53125 22.164062 -34.023438 21.125 -33.015625 C 20.082031 -32.015625 19.5625 -30.546875 19.5625 -28.609375 L 19.5625 0 L 3.515625 0 L 3.515625 -70.25 Z M 19.5625 -70.25 "/></g></g></g><g fill="#000000" fill-opacity="1"><g transform="translate(1201.46706, 1295.890791)"><g><path d="M 46.0625 0 L 30.609375 0 L 30.609375 -28.203125 C 30.609375 -30.078125 30.140625 -31.628906 29.203125 -32.859375 C 28.265625 -34.097656 26.894531 -34.71875 25.09375 -34.71875 C 23.28125 -34.71875 21.90625 -34.097656 20.96875 -32.859375 C 20.03125 -31.628906 19.5625 -30.078125 19.5625 -28.203125 L 19.5625 0 L 4.109375 0 L 4.109375 -28.296875 C 4.109375 -31.441406 4.578125 -34.335938 5.515625 -36.984375 C 6.453125 -39.628906 7.820312 -41.921875 9.625 -43.859375 C 11.4375 -45.796875 13.628906 -47.300781 16.203125 -48.375 C 18.785156 -49.445312 21.75 -49.984375 25.09375 -49.984375 C 28.4375 -49.984375 31.410156 -49.429688 34.015625 -48.328125 C 36.628906 -47.222656 38.820312 -45.71875 40.59375 -43.8125 C 42.363281 -41.90625 43.71875 -39.613281 44.65625 -36.9375 C 45.59375 -34.257812 46.0625 -31.378906 46.0625 -28.296875 Z M 46.0625 0 "/></g></g></g><g fill="#000000" fill-opacity="1"><g transform="translate(1251.648378, 1295.890791)"><g><path d="M 53.09375 -24.390625 C 53.09375 -20.972656 52.421875 -17.722656 51.078125 -14.640625 C 49.742188 -11.566406 47.921875 -8.84375 45.609375 -6.46875 C 43.304688 -4.09375 40.628906 -2.21875 37.578125 -0.84375 C 34.535156 0.519531 31.3125 1.203125 27.90625 1.203125 C 24.488281 1.203125 21.257812 0.519531 18.21875 -0.84375 C 15.175781 -2.21875 12.5 -4.09375 10.1875 -6.46875 C 7.875 -8.84375 6.046875 -11.566406 4.703125 -14.640625 C 3.367188 -17.722656 2.703125 -20.972656 2.703125 -24.390625 C 2.703125 -27.796875 3.367188 -31.035156 4.703125 -34.109375 C 6.046875 -37.191406 7.875 -39.90625 10.1875 -42.25 C 12.5 -44.59375 15.175781 -46.46875 18.21875 -47.875 C 21.257812 -49.28125 24.488281 -49.984375 27.90625 -49.984375 C 31.382812 -49.984375 34.644531 -49.28125 37.6875 -47.875 C 40.726562 -46.46875 43.382812 -44.578125 45.65625 -42.203125 C 47.9375 -39.828125 49.742188 -37.097656 51.078125 -34.015625 C 52.421875 -30.941406 53.09375 -27.734375 53.09375 -24.390625 Z M 27.90625 -14.046875 C 29.300781 -14.046875 30.601562 -14.328125 31.8125 -14.890625 C 33.019531 -15.460938 34.054688 -16.234375 34.921875 -17.203125 C 35.796875 -18.179688 36.46875 -19.285156 36.9375 -20.515625 C 37.40625 -21.753906 37.640625 -23.046875 37.640625 -24.390625 C 37.640625 -25.722656 37.40625 -27.007812 36.9375 -28.25 C 36.46875 -29.488281 35.8125 -30.59375 34.96875 -31.5625 C 34.132812 -32.53125 33.097656 -33.296875 31.859375 -33.859375 C 30.617188 -34.429688 29.265625 -34.71875 27.796875 -34.71875 C 26.390625 -34.71875 25.097656 -34.429688 23.921875 -33.859375 C 22.753906 -33.296875 21.734375 -32.53125 20.859375 -31.5625 C 19.992188 -30.59375 19.328125 -29.488281 18.859375 -28.25 C 18.398438 -27.007812 18.171875 -25.722656 18.171875 -24.390625 C 18.171875 -23.046875 18.398438 -21.753906 18.859375 -20.515625 C 19.328125 -19.285156 19.992188 -18.179688 20.859375 -17.203125 C 21.734375 -16.234375 22.773438 -15.460938 23.984375 -14.890625 C 25.191406 -14.328125 26.5 -14.046875 27.90625 -14.046875 Z M 27.90625 -14.046875 "/></g></g></g><g fill="#000000" fill-opacity="1"><g transform="translate(1307.449993, 1295.890791)"><g><path d="M 21.984375 -70.25 L 21.984375 0 L 5.921875 0 L 5.921875 -70.25 Z M 21.984375 -70.25 "/></g></g></g><g fill="#000000" fill-opacity="1"><g transform="translate(1335.3508, 1295.890791)"><g><path d="M 53.09375 -24.390625 C 53.09375 -20.972656 52.421875 -17.722656 51.078125 -14.640625 C 49.742188 -11.566406 47.921875 -8.84375 45.609375 -6.46875 C 43.304688 -4.09375 40.628906 -2.21875 37.578125 -0.84375 C 34.535156 0.519531 31.3125 1.203125 27.90625 1.203125 C 24.488281 1.203125 21.257812 0.519531 18.21875 -0.84375 C 15.175781 -2.21875 12.5 -4.09375 10.1875 -6.46875 C 7.875 -8.84375 6.046875 -11.566406 4.703125 -14.640625 C 3.367188 -17.722656 2.703125 -20.972656 2.703125 -24.390625 C 2.703125 -27.796875 3.367188 -31.035156 4.703125 -34.109375 C 6.046875 -37.191406 7.875 -39.90625 10.1875 -42.25 C 12.5 -44.59375 15.175781 -46.46875 18.21875 -47.875 C 21.257812 -49.28125 24.488281 -49.984375 27.90625 -49.984375 C 31.382812 -49.984375 34.644531 -49.28125 37.6875 -47.875 C 40.726562 -46.46875 43.382812 -44.578125 45.65625 -42.203125 C 47.9375 -39.828125 49.742188 -37.097656 51.078125 -34.015625 C 52.421875 -30.941406 53.09375 -27.734375 53.09375 -24.390625 Z M 27.90625 -14.046875 C 29.300781 -14.046875 30.601562 -14.328125 31.8125 -14.890625 C 33.019531 -15.460938 34.054688 -16.234375 34.921875 -17.203125 C 35.796875 -18.179688 36.46875 -19.285156 36.9375 -20.515625 C 37.40625 -21.753906 37.640625 -23.046875 37.640625 -24.390625 C 37.640625 -25.722656 37.40625 -27.007812 36.9375 -28.25 C 36.46875 -29.488281 35.8125 -30.59375 34.96875 -31.5625 C 34.132812 -32.53125 33.097656 -33.296875 31.859375 -33.859375 C 30.617188 -34.429688 29.265625 -34.71875 27.796875 -34.71875 C 26.390625 -34.71875 25.097656 -34.429688 23.921875 -33.859375 C 22.753906 -33.296875 21.734375 -32.53125 20.859375 -31.5625 C 19.992188 -30.59375 19.328125 -29.488281 18.859375 -28.25 C 18.398438 -27.007812 18.171875 -25.722656 18.171875 -24.390625 C 18.171875 -23.046875 18.398438 -21.753906 18.859375 -20.515625 C 19.328125 -19.285156 19.992188 -18.179688 20.859375 -17.203125 C 21.734375 -16.234375 22.773438 -15.460938 23.984375 -14.890625 C 25.191406 -14.328125 26.5 -14.046875 27.90625 -14.046875 Z M 27.90625 -14.046875 "/></g></g></g><g fill="#000000" fill-opacity="1"><g transform="translate(1391.152479, 1295.890791)"><g><path d="M 51.78125 -4.609375 C 51.78125 3.953125 49.585938 10.503906 45.203125 15.046875 C 40.828125 19.597656 33.890625 21.875 24.390625 21.875 C 21.847656 21.875 19.304688 21.691406 16.765625 21.328125 C 14.222656 20.960938 11.742188 20.375 9.328125 19.5625 L 9.328125 4.515625 C 11.671875 5.390625 13.945312 6.054688 16.15625 6.515625 C 18.363281 6.984375 20.90625 7.21875 23.78125 7.21875 C 28 7.21875 31.144531 6.429688 33.21875 4.859375 C 35.289062 3.296875 36.328125 1.109375 36.328125 -1.703125 L 36.328125 -24.984375 C 36.328125 -26.390625 36.140625 -27.710938 35.765625 -28.953125 C 35.398438 -30.191406 34.832031 -31.28125 34.0625 -32.21875 C 33.300781 -33.15625 32.316406 -33.90625 31.109375 -34.46875 C 29.910156 -35.039062 28.472656 -35.328125 26.796875 -35.328125 C 25.523438 -35.328125 24.300781 -35.078125 23.125 -34.578125 C 21.957031 -34.078125 20.9375 -33.375 20.0625 -32.46875 C 19.195312 -31.5625 18.515625 -30.488281 18.015625 -29.25 C 17.515625 -28.007812 17.265625 -26.691406 17.265625 -25.296875 C 17.265625 -22.410156 18.097656 -19.914062 19.765625 -17.8125 C 21.441406 -15.707031 23.816406 -14.65625 26.890625 -14.65625 C 29.035156 -14.65625 31.144531 -15.125 33.21875 -16.0625 L 33.21875 -0.90625 C 31.882812 -0.570312 30.53125 -0.335938 29.15625 -0.203125 C 27.78125 -0.0664062 26.222656 0 24.484375 0 C 21.335938 0 18.410156 -0.664062 15.703125 -2 C 12.992188 -3.34375 10.648438 -5.132812 8.671875 -7.375 C 6.703125 -9.613281 5.164062 -12.222656 4.0625 -15.203125 C 2.957031 -18.179688 2.40625 -21.3125 2.40625 -24.59375 C 2.40625 -28 2.988281 -31.222656 4.15625 -34.265625 C 5.332031 -37.316406 6.972656 -40.007812 9.078125 -42.34375 C 11.191406 -44.6875 13.753906 -46.546875 16.765625 -47.921875 C 19.773438 -49.296875 23.085938 -49.984375 26.703125 -49.984375 C 30.578125 -49.984375 34.050781 -49.328125 37.125 -48.015625 C 40.207031 -46.710938 42.832031 -44.875 45 -42.5 C 47.175781 -40.125 48.847656 -37.28125 50.015625 -33.96875 C 51.191406 -30.65625 51.78125 -26.992188 51.78125 -22.984375 Z M 51.78125 -4.609375 "/></g></g></g><g fill="#000000" fill-opacity="1"><g transform="translate(1446.954094, 1295.890791)"><g><path d="M 19.46875 -48.78125 L 19.46875 -20.265625 C 19.46875 -18.398438 19.898438 -16.832031 20.765625 -15.5625 C 21.640625 -14.289062 23.148438 -13.65625 25.296875 -13.65625 C 26.492188 -13.65625 27.441406 -13.851562 28.140625 -14.25 C 28.847656 -14.65625 29.382812 -15.207031 29.75 -15.90625 C 30.125 -16.601562 30.375 -17.367188 30.5 -18.203125 C 30.632812 -19.046875 30.703125 -19.9375 30.703125 -20.875 L 30.703125 -48.78125 L 46.171875 -48.78125 L 46.171875 -17.0625 C 46.171875 -12.78125 45.082031 -9.148438 42.90625 -6.171875 C 40.726562 -3.191406 37.53125 -1 33.3125 0.40625 L 33.3125 21.078125 L 17.265625 21.078125 L 17.265625 0.40625 C 8.429688 -2.269531 4.015625 -8.09375 4.015625 -17.0625 L 4.015625 -48.78125 Z M 19.46875 -48.78125 "/></g></g></g><g fill="#000000" fill-opacity="1"><g transform="translate(1497.165296, 1295.890791)"><g/></g></g></svg>